<?xml version="1.0" standalone="no"?> <!DOCTYPE svg PUBLIC "-//W3C//DTD SVG 1.0//EN" "http://www.w3.org/TR/2001/REC-SVG-20010904/DTD/svg10.dtd" > <svg xmlns="http://www.w3.org/2000/svg" width="100%" height="100%">
<defs >
<font horiz-adv-x="597" ><font-face
    font-family="Lyon Text OSF Web"
    units-per-em="1000"
    panose-1="2 0 5 5 8 0 0 2 0 4"
    ascent="760"
    descent="-240"
    alphabetic="0" />
<missing-glyph horiz-adv-x="159" />
<glyph unicode=" " glyph-name="space" horiz-adv-x="159" />
<glyph unicode="!" glyph-name="exclam" horiz-adv-x="312" d="M252 695L185 213H125L60 695H252ZM155 -14Q138 -14 123 -8T97 10T79 36T72 68Q72 102 96 126T155 151Q190 151 214 127T238 68Q238 35 214 11T155 -14Z" />
<glyph unicode="&quot;" glyph-name="quotedbl" horiz-adv-x="482" d="M45 783H207L153 469H99L45 783ZM275 783H437L383 469H329L275 783Z" />
<glyph unicode="#" glyph-name="numbersign" horiz-adv-x="593" d="M82 441H191L219 594H279L251 441H394L422 594H482L454 441H561V381H444L414 211H517V151H403L377 0H317L343 151H200L174 0H114L140 151H38V211H151L181 381H82V441ZM211 211H354L384 381H241L211 211Z" />
<glyph unicode="$" glyph-name="dollar" horiz-adv-x="652" d="M263 -8Q203 -4 160 9T78 42L60 241H114L186 100Q203 88 224 77T272 57L297 242L246 254Q168 272 124 322T80 440Q80 477 96 514T145 582T230 633T353 657L370 784H426L409 656Q445 652 482 642T561
617L568 434H513L459 561Q447 571 433 579T400 592L374 401L438 387Q530 367 566 322T602 216Q602 166 576 125T508 55T417 9T319 -10L304 -125H248L263 -8ZM434 140Q434 176 416 198T351 230L327 50Q349 50 368 56T402 75T425 103T434 140ZM243 503Q243 492 245
480T256 454T279 430T320 413L345 599Q300 597 272 571T243 503Z" />
<glyph unicode="%" glyph-name="percent" horiz-adv-x="963" d="M230 610Q271 610 306 597T368 559T408 501T423 426Q423 384 408 348T367 284T305 242T228 226Q181 226 145 241T84 281T46 341T33 412Q33 454 48 490T91 552T153 594T230 610ZM691 638H764L278
-50H205L691 638ZM216 557Q189 557 175 530T160 455Q160 434 164 404T178 346T203 298T241 278Q267 278 281 306T296 385Q296 422 290 454T272 508T247 544T216 557ZM740 364Q781 364 816 351T878 313T918 255T933 180Q933 138 918 102T877 38T815 -4T738 -20Q691
-20 655 -5T594 35T556 95T543 166Q543 208 558 244T601 306T663 348T740 364ZM726 311Q699 311 685 284T670 209Q670 188 674 158T688 100T713 52T751 32Q777 32 791 60T806 139Q806 176 800 208T782 262T757 298T726 311Z" />
<glyph unicode="&amp;" glyph-name="ampersand" horiz-adv-x="878" d="M760 425L614 194Q612 192 612 191Q657 147 691 123T758 96Q773 95 785 99T806 110Q817 117 825 126L848 97Q828 65 802 40Q779 19 745 2T666 -16Q644 -16 626 -11T589 4T551 31T507 71Q462
33 404 7T276 -20Q226 -20 184 -9T111 24T63 78T45 154Q45 196 64 228T110 283T167 323T219 351Q189 379 171 399T141 436T126 470T122 511Q122 543 138 575T184 633T257 675T355 692Q409 692 446 680T506 649T539 604T549 552Q549 519 534 494T497 449T449 416T401
391L485 315Q508 293 528 273T568 234Q580 253 593 277L674 425L596 435V494H840V439L760 425ZM252 319Q232 302 217 276T201 210Q201 154 240 119T344 84Q408 84 461 117Q436 141 408 170T342 235L252 319ZM263 555Q263 540 267 528T282 502T314 470T368 421Q399
447 412 474T425 536Q425 586 400 609T344 633Q309 633 286 612T263 555Z" />
<glyph unicode="&apos;" glyph-name="quotesingle" horiz-adv-x="252" d="M45 783H207L153 469H99L45 783Z" />
<glyph unicode="(" glyph-name="parenleft" horiz-adv-x="348" d="M260 -180Q213 -137 176 -86T111 23T70 144T55 273Q55 340 70 404T112 526T177 637T260 732H356Q315 683 283 632T229 525T196 407T185 273Q185 205 196 144T228 28T280 -79T352 -180H260Z" />
<glyph unicode=")" glyph-name="parenright" horiz-adv-x="348" d="M95 732Q189 646 241 529T293 279Q293 212 278 148T236 26T171 -85T88 -180H-8Q33 -131 65 -80T118 27T151 145T163 279Q163 415 121 524T-4 732H95Z" />
<glyph unicode="*" glyph-name="asterisk" horiz-adv-x="409" d="M257 497L251 375L224 369L168 476L49 442L35 465L123 552L52 653L68 672L181 621L253 716L276 708L262 587L374 548L373 522L257 497Z" />
<glyph unicode="+" glyph-name="plus" horiz-adv-x="558" d="M315 203V0H243V203H42V271H243V474H315V271H516V203H315Z" />
<glyph unicode="," glyph-name="comma" horiz-adv-x="291" d="M12 -164Q45 -148 67 -130T102 -94T120 -58T126 -21Q126 12 110 36T56 78Q56 98 61 117T77 152T107 177T152 187Q197 187 226 154T256 58Q256 -33 201 -97T39 -208L12 -164Z" />
<glyph unicode="-" glyph-name="hyphen" horiz-adv-x="384" d="M60 340H324V223H60V340Z" />
<glyph unicode="." glyph-name="period" horiz-adv-x="286" d="M406 -14Q388 -14 372 -7T343 12T323 41T316 75Q316 113 342 139T406 166Q444 166 470 140T497 75Q497 57 490 41T471 13T442 -7T406 -14Z" />
<glyph unicode="/" glyph-name="slash" horiz-adv-x="532" d="M5 -179L408 746L469 718L66 -207L5 -179Z" />
<glyph unicode="0" glyph-name="zero" horiz-adv-x="662" d="M234 247Q240 200 251 162T279 97T315 57T359 47Q382 50 398 67T422 115T432 185T428 273Q422 320 411 358T383 423T347 463T303 473Q280 470 265 453T240 405T230 335T234 247ZM331 -18Q259 -18 205
4T114 63T59 149T40 252Q40 312 62 364T124 456T216 517T331 539Q396 539 449 520T541 465T601 380T622 271Q622 210 601 157T540 65T448 4T331 -18Z" />
<glyph unicode="1" glyph-name="one" horiz-adv-x="471" d="M345 67L450 55V0H52V55L170 67V412H41V468L338 539H345V67Z" />
<glyph unicode="2" glyph-name="two" horiz-adv-x="510" d="M215 129H480V0H35V66L76 101Q125 143 162 176T224 236T262 288T275 335Q275 376 250 399T180 423Q152 423 128 409T77 370L38 404Q57 432 77 456T122 499T176 528T245 539Q290 539 324 526T382 491T418
441T430 383Q430 351 422 326T396 279T352 234T290 185L215 129Z" />
<glyph unicode="3" glyph-name="three" horiz-adv-x="518" d="M140 -215Q84 -215 50 -191T15 -129Q15 -101 33 -86T72 -65L173 -159Q200 -159 225 -150T270 -124T302 -84T314 -30Q314 -7 304 16T272 58T215 90T130 107V190L159 202Q228 230 258 265T288 338Q288
378 263 401T193 425Q175 425 160 420T131 406T107 389T87 372L50 406Q69 433 89 457T135 499T191 528T261 539Q351 539 400 495T449 384Q449 352 437 326T404 280T359 245T310 217L285 205V202Q330 196 367 181T430 142T471 88T486 21Q486 -39 456 -83T376 -157T264
-200T140 -215Z" />
<glyph unicode="4" glyph-name="four" horiz-adv-x="633" d="M332 10H17V81L389 560L486 553V124H613V10H486V-191H332V10ZM332 124V388L131 124H332Z" />
<glyph unicode="5" glyph-name="five" horiz-adv-x="500" d="M108 -214Q52 -214 18 -190T-17 -128Q-17 -100 1 -85T40 -64L141 -158Q168 -158 194 -150T240 -124T272 -80T284 -18Q284 48 220 100T40 175L142 520H450V380H165L142 302Q200 288 254 267T351 214T419
141T445 47Q445 -25 415 -74T336 -155T227 -200T108 -214Z" />
<glyph unicode="6" glyph-name="six" horiz-adv-x="652" d="M550 697Q509 682 468 660T390 607T322 539T270 453Q293 462 318 468T369 474Q423 474 468 456T546 407T597 335T615 245Q615 177 588 127T519 45T426 -2T326 -18Q270 -18 218 0T127 53T64 142T40 266Q40
342 64 404T128 516T220 604T327 670T437 715T536 740L550 697ZM271 400Q266 400 261 400T251 399Q235 345 235 278Q235 234 242 192T264 117T299 63T350 42Q373 42 388 55T413 89T427 136T431 190Q431 231 420 269T387 336T337 382T271 400Z" />
<glyph unicode="7" glyph-name="seven" horiz-adv-x="550" d="M24 -181L390 362H32V520H550V491L224 -39L109 -233L24 -181Z" />
<glyph unicode="8" glyph-name="eight" horiz-adv-x="561" d="M21 154Q21 186 34 212T69 258T116 293T166 319Q112 357 82 400T52 502Q52 533 65 565T106 624T176 668T278 685Q334 685 376 672T446 637T489 586T503 525Q503 496 491 473T460 433T419 403T375 383Q451
334 488 287T526 180Q526 133 504 96T445 33T362 -6T270 -20Q215 -20 169 -9T90 24T39 78T21 154ZM218 285Q198 264 184 235T170 165Q170 142 177 121T200 85T236 60T285 50Q318 50 344 69T371 124Q371 157 351 186T279 248L218 285ZM195 549Q195 513 216 491T275
445L325 414Q339 433 349 460T359 525Q359 570 335 596T270 622Q238 622 217 600T195 549Z" />
<glyph unicode="9" glyph-name="nine" horiz-adv-x="645" d="M102 -203Q146 -187 188 -163T267 -106T334 -32T384 59Q358 49 330 43T273 36Q214 36 170 54T95 104T50 178T35 269Q35 338 62 388T132 471T225 519T324 535Q387 535 439 515T530 458T589 370T610 255Q610
176 585 110T520 -9T427 -104T320 -174T212 -222T116 -246L102 -203ZM401 111Q415 167 415 228Q415 274 407 318T384 396T347 452T296 474Q273 474 259 461T235 426T223 379T219 327Q219 285 229 246T261 177T314 129T388 111H401Z" />
<glyph unicode=":" glyph-name="colon" horiz-adv-x="286" d="M150 -14Q132 -14 116 -7T87 12T67 41T60 75Q60 113 86 139T150 166Q188 166 214 140T241 75Q241 57 234 41T215 13T186 -7T150 -14ZM150 324Q113 324 87 350T60 415Q60 433 67 449T86 478T115 497T150
505Q169 505 185 498T214 478T234 450T241 415Q241 377 215 351T150 324Z" />
<glyph unicode=";" glyph-name="semicolon" horiz-adv-x="286" d="M156 324Q119 324 93 350T66 415Q66 433 73 449T92 478T121 497T156 505Q175 505 191 498T220 478T240 450T247 415Q247 377 221 351T156 324ZM12 -164Q45 -148 67 -130T102 -94T120 -58T126 -21Q126
12 110 36T56 78Q56 98 61 117T77 152T107 177T152 187Q197 187 226 154T256 58Q256 -33 201 -97T39 -208L12 -164Z" />
<glyph unicode="&lt;" glyph-name="less" horiz-adv-x="558" d="M125 235L515 59V-14L43 206V265L515 485V413L125 235Z" />
<glyph unicode="=" glyph-name="equal" horiz-adv-x="558" d="M42 358H516V293H42V358ZM42 202H516V137H42V202Z" />
<glyph unicode="&gt;" glyph-name="greater" horiz-adv-x="558" d="M433 236L43 412V485L515 265V206L43 -14V58L433 236Z" />
<glyph unicode="?" glyph-name="question" horiz-adv-x="406" d="M65 721L129 710Q189 700 238 676T324 619T379 543T399 454Q399 421 394 395T374 349T335 315T272 292L164 269V213H106L75 391L261 430Q308 441 323 453T338 479Q338 511 282 524T108 545L65 548V721ZM137
-14Q120 -14 105 -8T79 10T61 36T54 68Q54 102 78 126T137 151Q172 151 196 127T220 68Q220 35 196 11T137 -14Z" />
<glyph unicode="@" glyph-name="at" horiz-adv-x="976" d="M544 207H541L516 168Q499 142 482 115T444 64T398 25T342 10Q304 10 285 36T263 101Q261 146 277 190T321 273T383 345T453 402T521 439T575 453Q585 453 593 452T610 449L617 476H740L654 140Q643 98
647 80T676 61Q696 61 724 76T779 124T825 207T848 328Q851 390 829 443T768 535T676 596T562 618Q487 618 416 587T290 500T199 364T160 190Q157 111 179 51T244 -51T346 -114T475 -135Q506 -135 535 -131T587 -120T626 -109T647 -101L645 -142Q614 -153 579 -162Q549
-170 511 -175T430 -181Q339 -181 267 -155T147 -81T74 31T52 172Q56 276 104 365T227 520T398 623T591 661Q676 661 742 635T852 566T919 465T939 343Q936 266 904 205T827 100T728 34T629 10Q557 10 535 54T533 169L544 207ZM420 118Q432 118 453 141T497 201T542
281T574 366L580 388Q559 396 548 396Q529 396 504 371T457 309T420 228T405 149Q405 129 410 124T420 118Z" />
<glyph unicode="A" glyph-name="A" horiz-adv-x="789" d="M6 52L74 73L306 655L380 659L460 680L707 66L783 54V0H421V56L506 68L458 201H213L170 81L276 56V0H6V52ZM240 278H430L336 540H335L240 278Z" />
<glyph unicode="B" glyph-name="B" horiz-adv-x="709" d="M28 55L115 68V595L33 609V664L356 666Q501 667 569 629T638 514Q638 476 620 449T570 403T499 373T414 358V354Q468 355 515 346T599 316T655 263T676 185Q676 132 651 97T581 39T473 8T334 -1L28 0V55ZM298
329V110Q298 81 322 66T376 50Q424 50 456 79T488 166Q488 233 449 275T341 329H298ZM298 372Q344 376 375 386T426 410T453 444T461 485Q461 538 420 573T298 612V372Z" />
<glyph unicode="C" glyph-name="C" horiz-adv-x="726" d="M406 -18Q308 -18 238 9T123 81T57 183T36 300Q36 384 68 455T158 577T292 656T457 685Q521 685 572 669T666 631L672 448H619L552 593Q535 603 512 611T457 619Q414 619 375 602T306 552T259 469T241
357Q241 284 259 228T307 132T379 73T467 53Q496 53 519 59T559 74L644 230H698L674 40Q614 13 549 -2T406 -18Z" />
<glyph unicode="D" glyph-name="D" horiz-adv-x="814" d="M28 55L115 68V595L33 609V664L393 669Q482 670 553 647T675 583T753 484T781 359Q781 269 748 201T655 86T516 17T343 -4L28 0V55ZM300 100Q301 83 311 73T334 58T362 52T387 51Q432 52 466 73T525 131T561
216T574 317Q574 403 552 461T491 553T403 600T299 609L300 100Z" />
<glyph unicode="E" glyph-name="E" horiz-adv-x="704" d="M307 307V68H529L618 216H670L635 0H33V55L120 68V595L38 609V664H535L635 671V474H583L531 603H307V368H424L450 453H498V228H448L424 307H307Z" />
<glyph unicode="F" glyph-name="F" horiz-adv-x="650" d="M307 305V68L428 57V0H27V55L120 68V595L38 609V664H525L626 671V464H574L522 603H307V366H415L441 451H489V226H439L415 305H307Z" />
<glyph unicode="G" glyph-name="G" horiz-adv-x="775" d="M406 -18Q310 -18 241 9T126 80T58 182T36 299Q36 384 69 455T161 577T296 656T463 685Q529 685 583 669T680 631L686 448H633L568 591Q554 600 525 609T455 619Q414 619 376 602T307 552T259 471T241
359Q241 284 259 227T308 131T382 73T472 53Q489 53 505 55T532 61V253L447 264V318H745V264L697 250V43L659 28Q617 11 555 -3T406 -18Z" />
<glyph unicode="H" glyph-name="H" horiz-adv-x="861" d="M475 55L559 68V288H302V68L386 55V0H28V55L115 68V595L33 609V664H379V609L302 595V368H559V595L482 609V664H828V609L746 595V68L833 55V0H475V55Z" />
<glyph unicode="I" glyph-name="I" horiz-adv-x="417" d="M28 55L115 68V595L33 609V664H384V609L302 595V68L389 55V0H28V55Z" />
<glyph unicode="J" glyph-name="J" horiz-adv-x="438" d="M317 109Q317 37 298 -23T242 -127T154 -195T35 -220L21 -168Q60 -158 82 -134T115 -77T128 -2T131 85V595L47 609V664H401V609L317 595V109Z" />
<glyph unicode="K" glyph-name="K" horiz-adv-x="793" d="M28 55L115 68V595L33 609V664H381V609L302 595V68L369 55V0H28V55ZM311 357V367L381 387L578 589L502 610V664H766V612L680 589L493 402L726 68L804 55V0H547L311 357Z" />
<glyph unicode="L" glyph-name="L" horiz-adv-x="649" d="M479 68L578 241H630L590 0H28V55L115 68V595L33 609V664H387V609L302 595V68H479Z" />
<glyph unicode="M" glyph-name="M" horiz-adv-x="1028" d="M25 55L111 75L118 595L28 609V664H362L527 296L661 623L667 664H994V609L912 595L916 67L1003 55V0H634V56L727 68L730 569L536 122L500 11H436L402 120L203 574L197 83L326 53V0H25V55Z" />
<glyph unicode="N" glyph-name="N" horiz-adv-x="831" d="M596 0L194 477L199 80L338 52V0H28V55L115 74L116 579L27 610V664H279L646 227L643 581L504 612V664H808V609L726 587V77L729 0H596Z" />
<glyph unicode="O" glyph-name="O" horiz-adv-x="788" d="M405 47Q436 47 462 65T508 117T538 201T549 314Q549 375 538 430T504 527T451 593T380 618Q348 618 323 600T278 548T249 464T239 352Q239 284 252 228T287 131T340 69T405 47ZM395 685Q473 685 538 662T651
594T725 486T752 343Q752 260 723 193T643 79T528 5T390 -21Q313 -21 249 3T137 71T63 178T36 321Q36 405 65 472T143 587T258 659T395 685Z" />
<glyph unicode="P" glyph-name="P" horiz-adv-x="669" d="M343 309Q400 316 436 354T472 456Q472 486 463 513T432 563T379 598T302 611V68L408 55V0H28V55L115 68V595L33 609V664L343 665Q415 665 473 654T572 618T635 559T657 476Q657 419 629 377T555 309T454
272T343 268V309Z" />
<glyph unicode="Q" glyph-name="Q" horiz-adv-x="789" d="M396 685Q473 685 538 662T651 595T726 489T753 347Q753 285 735 232T686 136T611 62T516 13Q559 -19 598 -47T678 -95T760 -126T851 -138Q899 -138 934 -129T1006 -100L1029 -130Q1017 -142 996 -160T941
-194T862 -223T754 -235Q676 -235 607 -214T475 -156T352 -73T232 25Q141 63 89 141T37 329Q37 408 66 473T144 586T259 659T396 685ZM382 618Q317 618 277 549T236 351Q236 290 247 236T281 140T334 74T407 50Q475 50 514 118T554 311Q554 366 544 421T512 519T458
590T382 618Z" />
<glyph unicode="R" glyph-name="R" horiz-adv-x="762" d="M28 55L115 68V596L33 609V664L344 666Q410 667 467 657T566 624T633 566T657 482Q657 422 619 382T519 316V313L690 64L767 53V0H536L419 173Q399 201 388 220T368 250Q359 263 355 271L302 269V68L369
55V0H28V55ZM302 319L345 320Q406 331 440 370T475 459Q475 489 465 516T434 565T381 598T302 611V319Z" />
<glyph unicode="S" glyph-name="S" horiz-adv-x="593" d="M32 245H84L165 85Q188 68 214 59T279 49Q323 49 351 72T380 140Q380 175 358 199T292 240L212 272Q132 303 93 348T54 468Q54 506 71 545T123 615T210 666T331 686Q384 686 428 674T523 639L529 449H476L414
588Q411 591 404 596T387 606T361 616T327 620Q279 620 252 595T224 530Q224 495 245 471T319 426L403 392Q449 373 479 353T527 311T552 263T559 209Q559 156 534 114T469 41T378 -5T278 -21Q200 -21 147 -4T48 43L32 245Z" />
<glyph unicode="T" glyph-name="T" horiz-adv-x="730" d="M594 664L695 671L700 464H648L588 603H458V69L562 55V0H168V55L272 68V603H142L82 464H30L35 671L134 664H594Z" />
<glyph unicode="U" glyph-name="U" horiz-adv-x="782" d="M398 -21Q244 -21 171 47T97 268V595L15 609V664H363V609L284 595V254Q284 167 322 119T437 70Q518 70 559 121T600 275L597 583L471 612V664H767V609L686 588V293Q686 224 670 167T620 68T531 3T398 -21Z" />
<glyph unicode="V" glyph-name="V" horiz-adv-x="762" d="M78 595L6 608V664H357V608L279 593L440 148L602 585L493 608V664H756V608L687 591L449 -11H314L78 595Z" />
<glyph unicode="W" glyph-name="W" horiz-adv-x="1132" d="M568 404L431 -11H301L84 595L6 608V664H359V608L283 595L424 174L532 506L500 596L428 608V664H774V608L699 594L840 175L963 582L879 608V664H1126V608L1049 588L847 -11H717L568 404Z" />
<glyph unicode="X" glyph-name="X" horiz-adv-x="740" d="M6 56L73 69L280 317L97 596L32 609V664H394V609L322 596L425 424H427L547 591L461 609V664H715V609L649 595L461 365L658 67L734 55V0H353V56L433 68L316 260H314L179 73L266 55V0H6V56Z" />
<glyph unicode="Y" glyph-name="Y" horiz-adv-x="707" d="M447 279V68L539 55V0H168V55L260 68V243L70 599L6 608V664H370V610L285 597L406 330L539 592L452 610V664H701V610L623 592L447 279Z" />
<glyph unicode="Z" glyph-name="Z" horiz-adv-x="644" d="M22 65L383 597H156L89 447H39L52 671L151 664H624V647L233 68H472L568 241H617L580 -7L473 0H22V65Z" />
<glyph unicode="[" glyph-name="bracketleft" horiz-adv-x="355" d="M98 -181V733H320V674H220V-122H320V-181H98Z" />
<glyph unicode="\" glyph-name="backslash" horiz-adv-x="532" d="M466 -207L63 718L124 746L527 -179L466 -207Z" />
<glyph unicode="]" glyph-name="bracketright" horiz-adv-x="355" d="M257 733V-181H35V-122H135V674H35V733H257Z" />
<glyph unicode="^" glyph-name="asciicircum" horiz-adv-x="512" d="M50 468L211 756H296L462 468H398L250 665L105 468H50Z" />
<glyph unicode="_" glyph-name="underscore" horiz-adv-x="408" d="M4 -146H404V-225H4V-146Z" />
<glyph unicode="`" glyph-name="grave" horiz-adv-x="400" d="M111 753V771H243L291 576H227L111 753Z" />
<glyph unicode="a" glyph-name="a" horiz-adv-x="580" d="M183 -13Q152 -13 125 -3T78 25T47 68T35 125Q35 157 47 180T80 219T130 247T195 267L322 296V328Q322 352 318 374T304 412T278 437T239 447Q228 447 213 444T191 438V331Q178 326 159 321T116 315Q88
315 71 329T53 373Q53 396 73 420T128 464T208 497T302 510Q356 510 393 499T452 464T485 407T495 327V108Q495 81 504 75T536 69H572V27Q549 16 524 7Q503 -1 478 -7T429 -13Q403 -13 386 -6T357 13T339 42T328 79H324Q312 63 300 47T271 17T233 -4T183 -13ZM270
85Q288 85 301 92T322 108V245L284 235Q235 221 219 203T202 158Q202 123 222 104T270 85Z" />
<glyph unicode="b" glyph-name="b" horiz-adv-x="622" d="M264 -15Q244 -15 222 -13T177 -6T134 5T97 17L65 30V647L-6 664V716L238 746V438Q259 464 295 486T386 509Q426 509 464 496T531 455T579 383T597 277Q597 214 569 161T495 68T388 7T264 -15ZM296 409Q277
409 263 405T238 395V75Q247 66 258 59Q268 53 282 49T313 44Q360 44 393 91T426 230Q426 312 392 360T296 409Z" />
<glyph unicode="c" glyph-name="c" horiz-adv-x="506" d="M270 -15Q213 -15 168 4T93 57T46 134T29 229Q29 296 52 349T115 438T206 494T313 513Q352 513 382 503T434 475T465 435T476 388Q476 352 455 333T395 313Q384 313 376 313T360 315Q352 316 346 318L332
444Q325 445 319 447Q314 449 307 450T294 451Q265 451 246 437T213 401T195 354T189 308Q189 256 202 219T237 157T288 121T350 109Q373 109 394 116T431 131Q449 141 464 154L487 124Q466 94 444 69T396 25T339 -4T270 -15Z" />
<glyph unicode="d" glyph-name="d" horiz-adv-x="646" d="M274 724L561 746V84L633 68V16L441 -10L402 68Q389 52 374 37T340 11T297 -8T239 -15Q197 -15 159 2T92 51T46 129T29 234Q29 300 55 352T122 439T216 492T323 511Q339 511 355 508T388 499V643L274 669V724ZM337
87Q353 87 366 90T388 99V388Q354 441 301 441Q263 441 236 406T208 293Q208 240 218 202T246 138T287 100T337 87Z" />
<glyph unicode="e" glyph-name="e" horiz-adv-x="555" d="M277 -15Q213 -15 167 6T90 61T44 139T29 229Q29 299 54 352T119 441T207 495T303 513Q360 513 400 493T467 438T505 357T520 259H187Q193 218 209 189T249 140T302 113T363 104Q392 104 417 111T460 129Q481
140 498 154L523 124Q506 102 486 78T436 33T369 -1T277 -15ZM273 448Q239 448 213 417T183 322H352Q352 346 349 368T336 409T312 437T273 448Z" />
<glyph unicode="f" glyph-name="f" horiz-adv-x="409" d="M18 54L86 67V430H18V483L86 506V518Q86 562 106 604T158 679T232 732T318 753Q399 753 440 725T481 654Q481 635 473 622T453 599T425 586T393 582Q380 582 376 583Q372 583 370 584L320 696Q286 695
266 664T250 573L255 494H382V424H259V67L349 54V0H18V54Z" />
<glyph unicode="g" glyph-name="g" horiz-adv-x="584" d="M452 427L450 424Q467 408 480 381T494 316Q494 281 478 250T433 194T361 156T267 142Q209 142 165 158Q160 150 154 139T147 116Q147 96 162 92T210 87L374 81Q421 79 454 68T509 37T540 -7T550 -62Q550
-101 523 -139T449 -208T344 -257T220 -276Q166 -276 126 -265T61 -237T23 -197T10 -151Q10 -128 21 -110T48 -78T83 -54T118 -37L122 -35V-33L40 45Q42 58 49 75T66 112T90 149T117 181Q79 206 58 242T37 323Q37 366 55 400T105 459T178 497T267 511Q304 511 338
503T407 480L572 501V414L452 427ZM291 200Q326 205 340 243T343 337Q338 364 328 387T305 426T277 449T243 454Q207 449 193 412T190 318Q201 263 228 229T291 200ZM163 -56Q157 -71 157 -91Q157 -112 169 -129T201 -158T247 -177T303 -184Q374 -184 406 -161T439
-109Q439 -90 426 -79T391 -64L163 -56Z" />
<glyph unicode="h" glyph-name="h" horiz-adv-x="672" d="M365 55L418 67V299Q418 410 324 409Q304 408 289 403T262 392V67L317 54V0H21V54L89 67V647L18 664V716L262 746V435Q274 447 290 461T326 486T371 505T423 513Q506 513 548 473T591 346V67L660 54V0H365V55Z" />
<glyph unicode="i" glyph-name="i" horiz-adv-x="342" d="M18 55L86 67V396L18 409V464L259 513V67L320 55V0H18V55ZM173 569Q128 569 102 596T76 662Q76 700 102 726T173 753Q218 753 244 727T270 662Q270 624 243 597T173 569Z" />
<glyph unicode="j" glyph-name="j" horiz-adv-x="331" d="M-7 -191Q11 -181 27 -164T56 -119T75 -48T83 55V396L15 409V464L256 513V73Q256 -2 240 -54T199 -142Q173 -181 141 -202T81 -232Q48 -243 16 -243L-7 -191ZM170 569Q125 569 99 596T73 662Q73 700 99
726T170 753Q215 753 241 727T267 662Q267 624 240 597T170 569Z" />
<glyph unicode="k" glyph-name="k" horiz-adv-x="648" d="M89 647L18 664V716L262 746V67L322 54V0H21V54L89 67V647ZM548 -19Q520 -19 500 -15T465 0T437 25T411 60L273 277V287L334 303L440 421L345 442V494H629V443L552 423L432 307L648 25Q641 14 628 4Q617
-4 598 -11T548 -19Z" />
<glyph unicode="l" glyph-name="l" horiz-adv-x="347" d="M21 54L89 67V647L18 664V716L262 746V67L334 54V0H21V54Z" />
<glyph unicode="m" glyph-name="m" horiz-adv-x="998" d="M690 55L742 67V304Q742 351 723 380T657 409Q636 408 618 401T588 386V67L642 54V0H362V55L415 67V304Q415 351 395 380T328 409Q308 408 290 401T259 385V67L314 54V0H18V55L86 67V396L18 409V459L222
515H227L249 427H253Q262 440 276 455T312 483T360 504T423 512Q447 512 470 508T514 494T551 468T577 427H579Q588 440 602 455T638 483T687 504T752 513Q775 513 803 508T856 487T898 442T915 363V67L984 54V0H690V55Z" />
<glyph unicode="n" glyph-name="n" horiz-adv-x="670" d="M18 54L86 67V396L18 409V459L222 515H227L249 427H251Q261 439 277 453T315 481T363 504T420 513Q503 513 545 473T588 346V67L657 54V0H362V55L415 67V299Q415 410 321 409Q301 408 286 403T259 392V67L314
54V0H18V54Z" />
<glyph unicode="o" glyph-name="o" horiz-adv-x="602" d="M211 234Q217 190 227 154T253 94T286 57T327 47Q348 50 363 66T386 111T395 176T391 258Q385 302 375 338T349 398T316 435T275 445Q254 442 239 426T216 381T207 316T211 234ZM301 -18Q232 -18 181 2T94
58T42 140T24 239Q24 296 45 346T103 432T191 490T301 511Q363 511 414 493T501 440T558 360T578 256Q578 198 557 148T500 61T412 3T301 -18Z" />
<glyph unicode="p" glyph-name="p" horiz-adv-x="643" d="M18 -186L86 -173V396L18 409V459L222 515H227L249 427H252Q263 441 277 455T311 482T355 501T410 509Q446 509 483 496T550 454T599 383T618 280Q618 215 595 161T532 68T437 7T318 -15Q301 -15 287 -13T259
-6V-173L378 -186V-240H18V-186ZM312 409Q295 409 282 405T259 395V87Q269 73 287 60T338 47Q360 47 380 58T415 91T438 146T447 222Q447 308 412 358T312 409Z" />
<glyph unicode="q" glyph-name="q" horiz-adv-x="641" d="M272 -187L388 -173V51Q376 38 362 26T330 5T290 -9T239 -15Q197 -15 159 2T92 51T46 129T29 234Q29 300 55 352T122 439T216 492T323 511Q361 511 391 500T461 466L556 513H561V-172L632 -186V-240H272V-187ZM337
87Q353 87 366 90T388 99V388Q354 441 301 441Q263 441 236 406T208 293Q208 240 218 202T246 138T287 100T337 87Z" />
<glyph unicode="r" glyph-name="r" horiz-adv-x="462" d="M18 54L86 67V396L18 409V459L213 513H219L252 413H254L258 421Q267 437 279 453T306 483T339 505T378 513Q418 513 441 489T461 426Q459 403 450 386T430 357Q418 343 403 332L278 393L259 386V67L354
54V0H18V54Z" />
<glyph unicode="s" glyph-name="s" horiz-adv-x="499" d="M237 -19Q208 -19 185 -17T141 -10T97 2T46 21L28 191H78L137 83Q155 63 176 52T226 41Q258 41 278 57T298 98Q298 123 279 141T219 178L154 207Q95 233 72 267T48 349Q48 383 64 413T108 465T176 500T263
513Q314 513 353 503T434 476L438 325H390L348 416Q337 429 319 440T271 451Q242 451 224 437T206 396Q206 377 219 362T274 329L337 302Q373 287 397 272T436 239T457 202T463 155Q463 119 446 88T399 32T328 -5T237 -19Z" />
<glyph unicode="t" glyph-name="t" horiz-adv-x="377" d="M192 -15Q121 -15 93 19T66 116L72 430H2V483L72 507L190 648H239V494H361V424H242V155Q242 131 249 117T267 96T292 86T320 84Q329 84 337 84T351 85Q358 85 363 86L375 32Q350 19 320 8Q294 -1 261 -8T192 -15Z" />
<glyph unicode="u" glyph-name="u" horiz-adv-x="666" d="M417 75Q408 62 394 47T358 18T310 -5T248 -15Q221 -15 192 -8T138 17T98 65T82 142V418L14 431V481L255 508V193Q255 148 272 118T333 88Q361 88 379 96T407 113V417L333 430V481L580 508V87L649 73V20L464
-17L417 75Z" />
<glyph unicode="v" glyph-name="v" horiz-adv-x="589" d="M219 -9L55 427L4 437V494H309V436L238 427L329 156L332 141H334L338 156L436 417L369 436V494H585V436L530 427L357 -9H219Z" />
<glyph unicode="w" glyph-name="w" horiz-adv-x="890" d="M644 170Q646 165 646 162T648 154Q649 150 650 146H652Q653 149 654 153Q656 161 659 170L735 412L663 436V494H886V436L831 427L680 -8H551L459 240Q457 245 456 249T452 259Q450 264 449 269H447Q445
264 443 259Q441 254 440 250T436 240L334 -8H195L54 427L4 437V494H314V436L237 427L302 170Q303 162 307 149Q309 143 310 136H312Q313 143 316 149Q318 154 320 159T324 170L448 494H537L644 170Z" />
<glyph unicode="x" glyph-name="x" horiz-adv-x="607" d="M285 0V54L337 63L256 189H255L184 67L228 54V0H18V54L76 64L214 247L82 430L38 437V494H331V437L285 430L360 314H361L426 426L380 437V494H581V440L527 426L402 256L537 64L594 54V0H285Z" />
<glyph unicode="y" glyph-name="y" horiz-adv-x="570" d="M369 436V494H564V436L522 427L315 -96Q296 -145 280 -177T245 -228T207 -255T158 -263Q138 -263 120 -257T88 -238T66 -210T58 -173Q58 -134 81 -113T139 -92Q168 -92 186 -108T218 -150H223L258 -69L48
427L6 437V494H301V436L236 427L335 138H340L438 420L369 436Z" />
<glyph unicode="z" glyph-name="z" horiz-adv-x="554" d="M30 0V54L297 432H158L89 310H44L56 502L164 494H518V468L227 64H390L464 191H512L489 -4L390 0H30Z" />
<glyph unicode="{" glyph-name="braceleft" horiz-adv-x="365" d="M145 275Q195 268 222 239T251 160L256 -16Q257 -52 261 -74T276 -108T304 -124T350 -129V-181H335Q229 -181 181 -136T132 -6V168Q132 207 121 221T83 237L45 238V314L83 315Q109 316 120 330T132
384V558Q131 643 180 688T335 733H350V681Q322 681 305 677T277 660T262 626T256 568L251 392Q249 342 222 313T145 277V275Z" />
<glyph unicode="|" glyph-name="bar" horiz-adv-x="240" d="M85 -200V734H155V-200H85Z" />
<glyph unicode="}" glyph-name="braceright" horiz-adv-x="365" d="M220 277Q170 284 143 313T114 392L109 568Q108 604 104 626T89 660T61 676T15 681V733H30Q136 733 184 688T233 558V384Q233 345 244 331T282 315L320 314V238L282 237Q256 236 245 222T233
168V-6Q234 -91 185 -136T30 -181H15V-129Q43 -129 60 -125T88 -108T103 -74T109 -16L114 160Q116 210 143 239T220 275V277Z" />
<glyph unicode="~" glyph-name="asciitilde" horiz-adv-x="510" d="M30 211L35 225Q56 274 78 301T125 339T179 348T246 334L277 325Q315 313 340 307T383 302T413 318T436 359L480 336L475 320Q453 268 431 240T382 201T323 193T250 210L220 219Q185 229 162
235T122 240T95 226T74 189L30 211Z" />
<glyph unicode="&#xa1;" glyph-name="exclamdown" horiz-adv-x="312" d="M60 -131L127 351H187L252 -131H60ZM157 578Q174 578 189 572T215 554T233 527T240 496Q240 462 216 438T157 413Q122 413 98 437T74 496Q74 512 80 527T98 553T124 571T157 578Z" />
<glyph unicode="&#xa2;" glyph-name="cent" horiz-adv-x="522" d="M243 -11Q196 -4 160 17T98 71T59 143T45 229Q45 293 67 344T126 431T211 488T312 512L327 622H377L362 511Q395 507 420 495T464 467T491 431T501 392Q501 359 482 341T436 323Q427 323 419 323T405
325Q398 326 393 328L382 446Q378 448 372 450T355 455L307 93Q317 91 327 90T348 89Q376 89 400 98T444 119Q466 132 484 149L507 119Q466 58 417 22T292 -15L278 -125H228L243 -11ZM195 277Q195 210 212 171T259 112L305 457Q282 453 262 438T227 399T204 344T195
277Z" />
<glyph unicode="&#xa3;" glyph-name="sterling" horiz-adv-x="765" d="M161 313H297L308 372Q321 445 359 498T444 585T539 636T620 652Q649 652 674 644T719 620T749 585T760 540Q760 507 736 489T657 465Q647 517 628 551T581 586Q557 586 535 557T499 453L472
313H647V242H458Q438 173 395 126T301 47Q334 29 364 10T419 -27L448 -48Q503 -89 537 -109T597 -130Q611 -130 620 -117T634 -84T642 -39T646 9Q745 9 751 -52Q754 -77 735 -104T684 -153T611 -191T526 -206Q463 -206 401 -177T275 -78L204 0Q171 -11 144 -16T99
-21Q54 -21 36 -3T18 45Q18 74 42 94T102 114Q131 114 165 105T235 79Q249 105 261 141T282 225L285 242H161V313Z" />
<glyph unicode="&#xa5;" glyph-name="yen" horiz-adv-x="699" d="M86 320H228L76 572L22 581V637H366V583L291 570L407 345H409L525 565L448 583V637H677V583L609 565L463 320H614V265H443V196H614V141H443V68L535 55V0H164V55L256 68V141H86V196H256V265H86V320Z" />
<glyph unicode="&#xa6;" glyph-name="brokenbar" horiz-adv-x="240" d="M85 313V734H155V313H85ZM85 -200V219H155V-200H85Z" />
<glyph unicode="&#xa7;" glyph-name="section" horiz-adv-x="608" d="M315 -111Q316 -93 312 -73T297 -30T266 21T214 83L137 164Q100 202 75 252T50 357Q50 402 70 442T122 516T197 578T283 625T370 655T447 666Q495 666 523 643T551 590Q551 564 534 545T488
525L378 588Q357 585 336 581T293 568V559Q292 541 296 521T311 478T342 427T394 365L471 284Q508 245 533 195T558 91Q558 46 538 6T486 -68T411 -130T325 -177T238 -207T161 -218Q113 -218 85 -195T57 -142Q57 -117 74 -97T120 -77L230 -139Q250 -136 271 -132T314
-120L315 -111ZM152 398Q152 354 173 316T238 232L311 156Q346 120 368 85T390 8Q390 -22 382 -47T359 -96H369Q407 -74 431 -39T456 50Q456 94 435 132T370 216L297 292Q262 328 240 363T217 440Q217 469 226 495T249 544H239Q201 522 177 487T152 398Z" />
<glyph unicode="&#xa8;" glyph-name="dieresis" horiz-adv-x="400" d="M85 585Q53 585 30 608T7 663Q7 695 30 718T85 742Q117 742 140 719T163 663Q163 631 140 608T85 585ZM314 585Q282 585 259 608T236 663Q236 695 259 718T314 742Q346 742 369 719T393 663Q393
631 370 608T314 585Z" />
<glyph unicode="&#xa9;" glyph-name="copyright" horiz-adv-x="811" d="M60 327Q60 399 87 462T161 572T270 646T405 673Q477 673 540 646T650 573T724 463T751 327Q751 255 724 192T650 83T540 9T405 -18Q333 -18 271 9T161 82T87 192T60 327ZM102 327Q102 263
126 208T191 111T287 45T405 21Q468 21 523 45T619 110T684 207T708 327Q708 391 684 446T619 543T523 609T405 633Q342 633 287 609T191 544T126 447T102 327ZM437 133Q377 133 335 148T267 190T228 252T215 327Q215 367 233 403T282 466T355 508T445 524Q478
524 507 518T554 506L560 393H528L487 465Q476 471 464 475T435 480Q396 480 370 447T343 347Q343 311 351 280T374 227T411 192T460 179Q474 179 486 182L535 268H569L554 150Q483 133 437 133Z" />
<glyph unicode="&#xaa;" glyph-name="ordfeminine" horiz-adv-x="460" d="M148 247Q99 247 67 277T35 356Q35 381 44 399T68 429T106 451T155 466L254 490V515Q254 534 251 551T241 581T222 601T192 609Q184 609 172 607T155 603L156 518Q145 512 133 508T101
503Q79 503 66 514T52 550Q52 569 67 588T108 624T168 650T241 660Q283 660 311 651T357 624T381 577T388 512V342Q388 320 395 316T420 311H446V278Q428 269 410 262Q394 256 375 252T338 247Q318 247 305 252T282 267T268 290T259 319H257Q249 306 240 294T217
271T187 254T148 247ZM216 325Q230 325 239 330T254 341V450L229 444Q191 432 178 417T165 382Q165 355 180 340T216 325Z" />
<glyph unicode="&#xab;" glyph-name="guillemotleft" horiz-adv-x="714" d="M337 446L175 250L337 43L297 9L40 226V263L297 480L337 446ZM624 446L462 250L624 43L584 9L327 226V263L584 480L624 446Z" />
<glyph unicode="&#xae;" glyph-name="registered" horiz-adv-x="496" d="M15 529Q15 577 33 619T84 692T159 740T250 758Q298 758 340 741T413 692T463 619T481 529Q481 481 463 440T412 367T337 319T246 301Q198 301 156 318T83 366T33 439T15 529ZM55 529Q55
488 70 453T110 392T171 351T247 336Q288 336 323 351T385 392T426 453T441 529Q441 570 426 605T385 666T324 707T247 722Q206 722 171 707T110 666T70 605T55 529ZM121 444L150 449V623L124 627V655L244 657Q306 657 332 638T359 591Q359 576 353 565T337 546T318
534T301 526V524L361 449L385 444V418H295L264 461Q255 472 249 480T239 493Q235 498 232 502H223V447L244 443V418H121V444ZM223 530H259Q268 537 275 547T283 577Q283 597 269 612T223 629V530Z" />
<glyph unicode="&#xaf;" glyph-name="macron" horiz-adv-x="400" d="M55 695H345V612H55V695Z" />
<glyph unicode="&#xb0;" glyph-name="degree" horiz-adv-x="307" d="M5 603Q5 634 17 661T49 708T96 739T155 750Q186 750 212 739T259 708T290 661T302 603Q302 571 291 544T259 497T212 466T154 455Q123 455 96 466T49 497T17 544T5 603ZM66 603Q66 564 91 537T154
509Q192 509 217 536T242 603Q242 642 217 669T154 697Q116 697 91 670T66 603Z" />
<glyph unicode="&#xb1;" glyph-name="plusminus" horiz-adv-x="557" d="M315 353V150H243V353H42V421H243V624H315V421H516V353H315ZM42 0V68H516V0H42Z" />
<glyph unicode="&#xb4;" glyph-name="acute" horiz-adv-x="400" d="M289 771V753L173 576H109L156 771H289Z" />
<glyph unicode="&#xb6;" glyph-name="paragraph" horiz-adv-x="600" d="M254 -203Q216 -203 184 -192T127 -162T89 -115T75 -55Q75 -16 98 6T154 28Q183 28 203 7T223 -47L192 -114V-124Q199 -132 218 -140T263 -149Q322 -149 355 -110T389 13V604H299V189H260Q211
189 168 207T93 258T42 334T23 426Q23 475 41 518T92 594T168 645T260 664H572V609L490 595V43Q490 -26 469 -73T414 -149T338 -190T254 -203Z" />
<glyph unicode="&#xb7;" glyph-name="periodcentered" horiz-adv-x="301" d="M150 182Q132 182 116 189T87 208T67 237T60 271Q60 309 86 335T150 362Q188 362 214 336T241 271Q241 253 234 237T215 209T186 189T150 182Z" />
<glyph unicode="&#xb8;" glyph-name="cedilla" horiz-adv-x="400" d="M100 -229Q115 -224 131 -217T160 -201T181 -179T189 -150Q189 -127 177 -114T154 -92L217 4H270L242 -51Q270 -59 292 -80T314 -133Q314 -166 296 -189T248 -229T183 -254T113 -270L100 -229Z" />
<glyph unicode="&#xba;" glyph-name="ordmasculine" horiz-adv-x="475" d="M172 438Q181 367 205 328T259 293Q291 298 302 345T303 463Q294 531 271 572T216 608Q184 603 173 556T172 438ZM238 241Q185 241 145 257T79 302T39 367T26 445Q26 491 42 530T86 599T153
644T238 661Q286 661 325 646T391 604T434 540T449 458Q449 412 434 373T390 304T323 258T238 241Z" />
<glyph unicode="&#xbb;" glyph-name="guillemotright" horiz-adv-x="714" d="M90 43L252 239L90 446L130 480L387 263V226L130 9L90 43ZM378 43L540 239L378 446L418 480L675 263V226L418 9L378 43Z" />
<glyph unicode="&#xbc;" glyph-name="onequarter" horiz-adv-x="981" d="M275 323L364 315V266H29V315L130 325V564H29L24 612L268 670H275V323ZM548 140L788 412L879 394V160H961V83H879V0H745V83H548V140ZM745 160V287L631 160H745ZM210 -52L748 726L799 695L261
-83L210 -52Z" />
<glyph unicode="&#xbd;" glyph-name="onehalf" horiz-adv-x="991" d="M275 323L364 315V266H29V315L130 325V564H29L24 612L268 670H275V323ZM589 41L695 128Q724 152 743 171T774 205T790 233T795 256Q796 282 779 300T727 319Q699 319 676 304T630 266L599 299Q618
323 637 343T679 378T728 401T789 410Q852 410 892 380T932 292Q932 269 922 250T892 211T844 172T780 126L745 102H948V0H589V41ZM200 -52L738 726L789 695L251 -83L200 -52Z" />
<glyph unicode="&#xbe;" glyph-name="threequarters" horiz-adv-x="981" d="M170 248Q100 248 63 272T25 337Q25 357 41 375T98 398L138 314Q157 301 188 301Q216 301 236 317T257 363Q257 392 230 411T147 433V479L164 484Q204 496 220 512T237 552Q237 569 224
582T183 595Q150 595 128 583T78 545L44 576Q83 627 127 651T233 676Q299 676 337 652T376 585Q376 551 349 531T281 497V492Q338 484 372 461T406 396Q406 360 387 333T336 287T261 258T170 248ZM548 140L788 412L879 394V160H961V83H879V0H745V83H548V140ZM745
160V287L631 160H745ZM217 -52L755 726L806 695L268 -83L217 -52Z" />
<glyph unicode="&#xbf;" glyph-name="questiondown" horiz-adv-x="406" d="M341 -158L277 -147Q217 -137 168 -114T82 -56T27 20T7 109Q7 142 12 168T32 214T71 248T134 271L242 294V350H300L331 172L145 133Q98 122 83 110T68 84Q68 52 124 39T298 18L341 15V-158ZM269
577Q286 577 301 571T327 553T345 526T352 495Q352 461 328 437T269 412Q234 412 210 436T186 495Q186 511 192 526T210 552T236 570T269 577Z" />
<glyph unicode="&#xc0;" glyph-name="Agrave" horiz-adv-x="789" d="M371 875L439 736H355L227 853V875H371ZM6 52L74 73L306 655L380 659L460 680L707 66L783 54V0H421V56L506 68L458 201H213L170 81L276 56V0H6V52ZM240 278H430L336 540H335L240 278Z" />
<glyph unicode="&#xc1;" glyph-name="Aacute" horiz-adv-x="789" d="M6 52L74 73L306 655L380 659L460 680L707 66L783 54V0H421V56L506 68L458 201H213L170 81L276 56V0H6V52ZM240 278H430L336 540H335L240 278ZM557 875V853L429 736H345L413 875H557Z" />
<glyph unicode="&#xc2;" glyph-name="Acircumflex" horiz-adv-x="789" d="M239 736L341 875H448L554 736H478L393 794L309 736H239ZM6 52L74 73L306 655L380 659L460 680L707 66L783 54V0H421V56L506 68L458 201H213L170 81L276 56V0H6V52ZM240 278H430L336 540H335L240
278Z" />
<glyph unicode="&#xc3;" glyph-name="Atilde" horiz-adv-x="789" d="M365 762Q325 773 303 776T268 775T250 760T235 733L197 748L200 761Q211 808 229 833T270 867T322 873T384 860L411 853Q454 841 478 838T515 838T536 854T552 883L592 872L588 855Q577 807
559 782T515 747T459 740T392 755L365 762ZM6 52L74 73L306 655L380 659L460 680L707 66L783 54V0H421V56L506 68L458 201H213L170 81L276 56V0H6V52ZM240 278H430L336 540H335L240 278Z" />
<glyph unicode="&#xc4;" glyph-name="Adieresis" horiz-adv-x="789" d="M6 52L74 73L306 655L380 659L460 680L707 66L783 54V0H421V56L506 68L458 201H213L170 81L276 56V0H6V52ZM240 278H430L336 540H335L240 278ZM269 718Q237 718 214 741T191 796Q191 828
214 851T269 875Q285 875 299 869T323 852T340 827T347 796Q347 780 341 766T324 741T299 724T269 718ZM518 718Q502 718 488 724T464 740T447 765T440 796Q440 812 446 826T463 851T488 868T518 875Q550 875 573 852T597 796Q597 764 574 741T518 718Z" />
<glyph unicode="&#xc5;" glyph-name="Aring" horiz-adv-x="789" d="M6 52L74 73L306 655L380 659L460 680L707 66L783 54V0H421V56L506 68L458 201H213L170 81L276 56V0H6V52ZM240 278H430L336 540H335L240 278ZM273 827Q273 852 282 873T308 911T347 936T394
945Q419 945 441 936T480 912T505 874T515 827Q515 802 506 781T480 743T441 718T394 709Q368 709 346 718T308 742T283 779T273 827ZM332 827Q332 798 350 781T394 763Q420 763 438 780T456 827Q456 856 438 873T394 891Q368 891 350 874T332 827Z" />
<glyph unicode="&#xc6;" glyph-name="AE" horiz-adv-x="1067" d="M671 285V68H892L981 216H1033L998 0H402V55L488 68V286H285L180 82L285 56V0H6V52L74 73L369 588L256 609V664H898L998 671V474H946L894 603H671V346H787L813 431H861V206H811L787 285H671ZM465
603L317 346H488V603H465Z" />
<glyph unicode="&#xc7;" glyph-name="Ccedilla" horiz-adv-x="726" d="M256 -239Q271 -234 287 -227T316 -211T337 -189T345 -160Q345 -137 333 -124T310 -102L366 -17Q279 -11 217 18T114 90T55 188T36 300Q36 384 68 455T158 577T292 656T457 685Q521 685 572
669T666 631L672 448H619L552 593Q535 603 512 611T457 619Q414 619 375 602T306 552T259 469T241 357Q241 284 259 228T307 132T379 73T467 53Q496 53 519 59T559 74L644 230H698L674 40Q617 14 555 -1T420 -18L398 -61Q426 -69 448 -90T470 -143Q470 -176 452
-199T404 -239T339 -264T269 -280L256 -239Z" />
<glyph unicode="&#xc8;" glyph-name="Egrave" horiz-adv-x="704" d="M307 307V68H529L618 216H670L635 0H33V55L120 68V595L38 609V664H535L635 671V474H583L531 603H307V368H424L450 453H498V228H448L424 307H307ZM347 875L415 736H331L203 853V875H347Z" />
<glyph unicode="&#xc9;" glyph-name="Eacute" horiz-adv-x="704" d="M307 307V68H529L618 216H670L635 0H33V55L120 68V595L38 609V664H535L635 671V474H583L531 603H307V368H424L450 453H498V228H448L424 307H307ZM533 875V853L405 736H321L389 875H533Z" />
<glyph unicode="&#xca;" glyph-name="Ecircumflex" horiz-adv-x="704" d="M215 736L317 875H424L530 736H454L369 794L285 736H215ZM307 307V68H529L618 216H670L635 0H33V55L120 68V595L38 609V664H535L635 671V474H583L531 603H307V368H424L450 453H498V228H448L424
307H307Z" />
<glyph unicode="&#xcb;" glyph-name="Edieresis" horiz-adv-x="704" d="M240 718Q208 718 185 741T162 796Q162 828 185 851T240 875Q256 875 270 869T294 852T311 827T318 796Q318 780 312 766T295 741T270 724T240 718ZM489 718Q473 718 459 724T435 740T418
765T411 796Q411 812 417 826T434 851T459 868T489 875Q521 875 544 852T568 796Q568 764 545 741T489 718ZM307 307V68H529L618 216H670L635 0H33V55L120 68V595L38 609V664H535L635 671V474H583L531 603H307V368H424L450 453H498V228H448L424 307H307Z" />
<glyph unicode="&#xcc;" glyph-name="Igrave" horiz-adv-x="417" d="M441 875L509 736H425L297 853V875H441ZM28 55L115 68V595L33 609V664H384V609L302 595V68L389 55V0H28V55Z" />
<glyph unicode="&#xcd;" glyph-name="Iacute" horiz-adv-x="417" d="M371 875V853L243 736H159L227 875H371ZM28 55L115 68V595L33 609V664H384V609L302 595V68L389 55V0H28V55Z" />
<glyph unicode="&#xce;" glyph-name="Icircumflex" horiz-adv-x="417" d="M53 736L155 875H262L368 736H292L207 794L123 736H53ZM28 55L115 68V595L33 609V664H384V609L302 595V68L389 55V0H28V55Z" />
<glyph unicode="&#xcf;" glyph-name="Idieresis" horiz-adv-x="417" d="M28 55L115 68V595L33 609V664H384V609L302 595V68L389 55V0H28V55ZM83 718Q51 718 28 741T5 796Q5 828 28 851T83 875Q99 875 113 869T137 852T154 827T161 796Q161 780 155 766T138 741T113
724T83 718ZM332 718Q316 718 302 724T278 740T261 765T254 796Q254 812 260 826T277 851T302 868T332 875Q364 875 387 852T411 796Q411 764 388 741T332 718Z" />
<glyph unicode="&#xd0;" glyph-name="Eth" horiz-adv-x="814" d="M28 55L115 68V306H21V371H115V595L33 609V664L393 669Q482 670 553 647T675 583T753 484T781 359Q781 269 748 201T655 86T516 17T343 -4L28 0V55ZM299 306L300 100Q301 83 311 73T334 58T362
52T387 51Q432 52 466 73T525 131T561 216T574 317Q574 403 552 461T491 553T403 600T299 609V371H425V306H299Z" />
<glyph unicode="&#xd1;" glyph-name="Ntilde" horiz-adv-x="831" d="M596 0L194 477L199 80L338 52V0H28V55L115 74L116 579L27 610V664H279L646 227L643 581L504 612V664H808V609L726 587V77L729 0H596ZM388 762Q348 773 326 776T291 775T273 760T258 733L220
748L223 761Q234 808 252 833T293 867T345 873T407 860L434 853Q477 841 501 838T538 838T559 854T575 883L615 872L611 855Q600 807 582 782T538 747T482 740T415 755L388 762Z" />
<glyph unicode="&#xd2;" glyph-name="Ograve" horiz-adv-x="788" d="M405 47Q436 47 462 65T508 117T538 201T549 314Q549 375 538 430T504 527T451 593T380 618Q348 618 323 600T278 548T249 464T239 352Q239 284 252 228T287 131T340 69T405 47ZM395 685Q473
685 538 662T651 594T725 486T752 343Q752 260 723 193T643 79T528 5T390 -21Q313 -21 249 3T137 71T63 178T36 321Q36 405 65 472T143 587T258 659T395 685ZM371 875L439 736H355L227 853V875H371Z" />
<glyph unicode="&#xd3;" glyph-name="Oacute" horiz-adv-x="788" d="M557 875V853L429 736H345L413 875H557ZM405 47Q436 47 462 65T508 117T538 201T549 314Q549 375 538 430T504 527T451 593T380 618Q348 618 323 600T278 548T249 464T239 352Q239 284 252 228T287
131T340 69T405 47ZM395 685Q473 685 538 662T651 594T725 486T752 343Q752 260 723 193T643 79T528 5T390 -21Q313 -21 249 3T137 71T63 178T36 321Q36 405 65 472T143 587T258 659T395 685Z" />
<glyph unicode="&#xd4;" glyph-name="Ocircumflex" horiz-adv-x="788" d="M405 47Q436 47 462 65T508 117T538 201T549 314Q549 375 538 430T504 527T451 593T380 618Q348 618 323 600T278 548T249 464T239 352Q239 284 252 228T287 131T340 69T405 47ZM395 685Q473
685 538 662T651 594T725 486T752 343Q752 260 723 193T643 79T528 5T390 -21Q313 -21 249 3T137 71T63 178T36 321Q36 405 65 472T143 587T258 659T395 685ZM239 736L341 875H448L554 736H478L393 794L309 736H239Z" />
<glyph unicode="&#xd5;" glyph-name="Otilde" horiz-adv-x="788" d="M365 762Q325 773 303 776T268 775T250 760T235 733L197 748L200 761Q211 808 229 833T270 867T322 873T384 860L411 853Q454 841 478 838T515 838T536 854T552 883L592 872L588 855Q577 807
559 782T515 747T459 740T392 755L365 762ZM405 47Q436 47 462 65T508 117T538 201T549 314Q549 375 538 430T504 527T451 593T380 618Q348 618 323 600T278 548T249 464T239 352Q239 284 252 228T287 131T340 69T405 47ZM395 685Q473 685 538 662T651 594T725
486T752 343Q752 260 723 193T643 79T528 5T390 -21Q313 -21 249 3T137 71T63 178T36 321Q36 405 65 472T143 587T258 659T395 685Z" />
<glyph unicode="&#xd6;" glyph-name="Odieresis" horiz-adv-x="788" d="M405 47Q436 47 462 65T508 117T538 201T549 314Q549 375 538 430T504 527T451 593T380 618Q348 618 323 600T278 548T249 464T239 352Q239 284 252 228T287 131T340 69T405 47ZM395 685Q473
685 538 662T651 594T725 486T752 343Q752 260 723 193T643 79T528 5T390 -21Q313 -21 249 3T137 71T63 178T36 321Q36 405 65 472T143 587T258 659T395 685ZM269 718Q237 718 214 741T191 796Q191 828 214 851T269 875Q285 875 299 869T323 852T340 827T347 796Q347
780 341 766T324 741T299 724T269 718ZM518 718Q502 718 488 724T464 740T447 765T440 796Q440 812 446 826T463 851T488 868T518 875Q550 875 573 852T597 796Q597 764 574 741T518 718Z" />
<glyph unicode="&#xd7;" glyph-name="multiply" horiz-adv-x="558" d="M274 188L98 9L51 56L231 237L51 417L100 466L279 286L459 471L505 423L326 241L506 60L454 7L274 188Z" />
<glyph unicode="&#xd8;" glyph-name="Oslash" horiz-adv-x="788" d="M125 86Q83 130 60 188T37 321Q37 403 66 470T144 585T259 659T395 685Q459 685 515 667T617 616L683 687H756L658 581Q702 536 726 476T751 343Q751 258 722 191T644 76T529 4T390 -21Q260
-21 165 51L88 -32H15L125 86ZM558 320Q558 394 541 456L264 158Q286 106 322 74T409 42Q446 42 474 61T520 117T548 205T558 320ZM384 619Q315 619 274 545T233 330Q233 270 245 216L520 512Q496 563 461 591T384 619Z" />
<glyph unicode="&#xd9;" glyph-name="Ugrave" horiz-adv-x="782" d="M398 875L466 736H382L254 853V875H398ZM398 -21Q244 -21 171 47T97 268V595L15 609V664H363V609L284 595V254Q284 167 322 119T437 70Q518 70 559 121T600 275L597 583L471 612V664H767V609L686
588V293Q686 224 670 167T620 68T531 3T398 -21Z" />
<glyph unicode="&#xda;" glyph-name="Uacute" horiz-adv-x="782" d="M398 -21Q244 -21 171 47T97 268V595L15 609V664H363V609L284 595V254Q284 167 322 119T437 70Q518 70 559 121T600 275L597 583L471 612V664H767V609L686 588V293Q686 224 670 167T620 68T531
3T398 -21ZM584 875V853L456 736H372L440 875H584Z" />
<glyph unicode="&#xdb;" glyph-name="Ucircumflex" horiz-adv-x="782" d="M266 736L368 875H475L581 736H505L420 794L336 736H266ZM398 -21Q244 -21 171 47T97 268V595L15 609V664H363V609L284 595V254Q284 167 322 119T437 70Q518 70 559 121T600 275L597 583L471
612V664H767V609L686 588V293Q686 224 670 167T620 68T531 3T398 -21Z" />
<glyph unicode="&#xdc;" glyph-name="Udieresis" horiz-adv-x="782" d="M296 718Q264 718 241 741T218 796Q218 828 241 851T296 875Q312 875 326 869T350 852T367 827T374 796Q374 780 368 766T351 741T326 724T296 718ZM545 718Q529 718 515 724T491 740T474
765T467 796Q467 812 473 826T490 851T515 868T545 875Q577 875 600 852T624 796Q624 764 601 741T545 718ZM398 -21Q244 -21 171 47T97 268V595L15 609V664H363V609L284 595V254Q284 167 322 119T437 70Q518 70 559 121T600 275L597 583L471 612V664H767V609L686
588V293Q686 224 670 167T620 68T531 3T398 -21Z" />
<glyph unicode="&#xdd;" glyph-name="Yacute" horiz-adv-x="707" d="M447 279V68L539 55V0H168V55L260 68V243L70 599L6 608V664H370V610L285 597L406 330L539 592L452 610V664H701V610L623 592L447 279ZM570 875V853L442 736H358L426 875H570Z" />
<glyph unicode="&#xde;" glyph-name="Thorn" horiz-adv-x="685" d="M28 55L115 68V595L33 609V664H384V609L302 595V522H321Q490 523 577 475T665 336Q665 283 635 245T558 184T454 151T343 145V186Q368 192 392 202T436 228T468 268T480 323Q480 353 467 379T431
425T375 456T302 468V68L389 55V0H28V55Z" />
<glyph unicode="&#xdf;" glyph-name="germandbls" horiz-adv-x="710" d="M18 55L86 67V430H18V483L88 506Q111 623 194 684T408 746Q451 746 488 735T554 705T598 658T614 598Q614 572 605 553T582 519T551 491T517 466Q503 456 495 450T481 438T474 427T472 416Q472
402 484 388T536 349L578 323Q629 292 653 260T678 178Q678 139 660 103T611 40T536 -3T440 -19Q401 -19 372 -10T314 13L312 170H358L392 56Q400 51 413 45T449 38Q489 38 507 60T526 109Q526 138 513 155T471 189L410 227Q373 250 355 274T336 333Q336 350 343
366T361 398T384 426T406 448Q423 464 437 478T460 508T475 541T481 581Q481 608 472 628T448 660T415 679T378 686Q326 686 293 648T260 533L258 0H18V55Z" />
<glyph unicode="&#xe0;" glyph-name="agrave" horiz-adv-x="580" d="M183 -13Q152 -13 125 -3T78 25T47 68T35 125Q35 157 47 180T80 219T130 247T195 267L322 296V328Q322 352 318 374T304 412T278 437T239 447Q228 447 213 444T191 438V331Q178 326 159 321T116
315Q88 315 71 329T53 373Q53 396 73 420T128 464T208 497T302 510Q356 510 393 499T452 464T485 407T495 327V108Q495 81 504 75T536 69H572V27Q549 16 524 7Q503 -1 478 -7T429 -13Q403 -13 386 -6T357 13T339 42T328 79H324Q312 63 300 47T271 17T233 -4T183
-13ZM270 85Q288 85 301 92T322 108V245L284 235Q235 221 219 203T202 158Q202 123 222 104T270 85ZM142 753V771H274L322 576H258L142 753Z" />
<glyph unicode="&#xe1;" glyph-name="aacute" horiz-adv-x="580" d="M183 -13Q152 -13 125 -3T78 25T47 68T35 125Q35 157 47 180T80 219T130 247T195 267L322 296V328Q322 352 318 374T304 412T278 437T239 447Q228 447 213 444T191 438V331Q178 326 159 321T116
315Q88 315 71 329T53 373Q53 396 73 420T128 464T208 497T302 510Q356 510 393 499T452 464T485 407T495 327V108Q495 81 504 75T536 69H572V27Q549 16 524 7Q503 -1 478 -7T429 -13Q403 -13 386 -6T357 13T339 42T328 79H324Q312 63 300 47T271 17T233 -4T183
-13ZM270 85Q288 85 301 92T322 108V245L284 235Q235 221 219 203T202 158Q202 123 222 104T270 85ZM432 771V753L316 576H252L299 771H432Z" />
<glyph unicode="&#xe2;" glyph-name="acircumflex" horiz-adv-x="580" d="M183 -13Q152 -13 125 -3T78 25T47 68T35 125Q35 157 47 180T80 219T130 247T195 267L322 296V328Q322 352 318 374T304 412T278 437T239 447Q228 447 213 444T191 438V331Q178 326 159
321T116 315Q88 315 71 329T53 373Q53 396 73 420T128 464T208 497T302 510Q356 510 393 499T452 464T485 407T495 327V108Q495 81 504 75T536 69H572V27Q549 16 524 7Q503 -1 478 -7T429 -13Q403 -13 386 -6T357 13T339 42T328 79H324Q312 63 300 47T271 17T233
-4T183 -13ZM270 85Q288 85 301 92T322 108V245L284 235Q235 221 219 203T202 158Q202 123 222 104T270 85ZM148 576L245 771H340L437 576H369L288 664L208 576H148Z" />
<glyph unicode="&#xe3;" glyph-name="atilde" horiz-adv-x="580" d="M183 -13Q152 -13 125 -3T78 25T47 68T35 125Q35 157 47 180T80 219T130 247T195 267L322 296V328Q322 352 318 374T304 412T278 437T239 447Q228 447 213 444T191 438V331Q178 326 159 321T116
315Q88 315 71 329T53 373Q53 396 73 420T128 464T208 497T302 510Q356 510 393 499T452 464T485 407T495 327V108Q495 81 504 75T536 69H572V27Q549 16 524 7Q503 -1 478 -7T429 -13Q403 -13 386 -6T357 13T339 42T328 79H324Q312 63 300 47T271 17T233 -4T183
-13ZM270 85Q288 85 301 92T322 108V245L284 235Q235 221 219 203T202 158Q202 123 222 104T270 85ZM261 605Q229 614 208 620T173 625T149 612T130 578L92 598L97 611Q115 656 133 681T173 716T220 725T278 713L305 705Q339 695 362 689T401 684T427 697T448 735L486
715L481 700Q462 652 443 626T402 590T352 583T288 597L261 605Z" />
<glyph unicode="&#xe4;" glyph-name="adieresis" horiz-adv-x="580" d="M183 -13Q152 -13 125 -3T78 25T47 68T35 125Q35 157 47 180T80 219T130 247T195 267L322 296V328Q322 352 318 374T304 412T278 437T239 447Q228 447 213 444T191 438V331Q178 326 159 321T116
315Q88 315 71 329T53 373Q53 396 73 420T128 464T208 497T302 510Q356 510 393 499T452 464T485 407T495 327V108Q495 81 504 75T536 69H572V27Q549 16 524 7Q503 -1 478 -7T429 -13Q403 -13 386 -6T357 13T339 42T328 79H324Q312 63 300 47T271 17T233 -4T183
-13ZM270 85Q288 85 301 92T322 108V245L284 235Q235 221 219 203T202 158Q202 123 222 104T270 85ZM174 585Q142 585 119 608T96 663Q96 695 119 718T174 742Q206 742 229 719T252 663Q252 631 229 608T174 585ZM403 585Q371 585 348 608T325 663Q325 695 348
718T403 742Q435 742 458 719T482 663Q482 631 459 608T403 585Z" />
<glyph unicode="&#xe5;" glyph-name="aring" horiz-adv-x="580" d="M183 -13Q152 -13 125 -3T78 25T47 68T35 125Q35 157 47 180T80 219T130 247T195 267L322 296V328Q322 352 318 374T304 412T278 437T239 447Q228 447 213 444T191 438V331Q178 326 159 321T116
315Q88 315 71 329T53 373Q53 396 73 420T128 464T208 497T302 510Q356 510 393 499T452 464T485 407T495 327V108Q495 81 504 75T536 69H572V27Q549 16 524 7Q503 -1 478 -7T429 -13Q403 -13 386 -6T357 13T339 42T328 79H324Q312 63 300 47T271 17T233 -4T183
-13ZM270 85Q288 85 301 92T322 108V245L284 235Q235 221 219 203T202 158Q202 123 222 104T270 85ZM168 674Q168 699 177 720T203 758T242 783T289 792Q314 792 336 783T375 759T400 721T410 674Q410 649 401 628T375 590T336 565T289 556Q263 556 241 565T203
589T178 626T168 674ZM227 674Q227 645 245 628T289 610Q315 610 333 627T351 674Q351 703 333 720T289 738Q263 738 245 721T227 674Z" />
<glyph unicode="&#xe6;" glyph-name="ae" horiz-adv-x="828" d="M184 -13Q149 -13 121 -2T74 28T45 72T35 124Q35 156 46 179T79 219T129 247T195 267L322 295V328Q322 388 301 417T239 447Q221 447 210 444T191 438V331Q178 326 161 321T119 315Q91 315 72 328T53
372Q53 397 74 421T128 465T204 497T290 510Q354 510 389 492T444 442Q470 474 505 493T590 513Q642 513 679 494T741 443T776 374T790 297Q785 296 766 294T718 289T655 283T588 276T526 271T476 266V246Q492 177 536 141T646 104Q675 104 698 111T738 129Q756
140 771 154L796 124Q781 102 763 78T717 33T651 -1T560 -15Q520 -15 489 -7T432 16T389 50T359 92Q342 74 323 56T283 22T237 -3T184 -13ZM272 86Q298 86 315 98T342 126Q331 155 327 184T322 237V245L289 237Q248 226 225 209T202 158Q202 124 222 105T272 86ZM560
448Q529 448 504 413T476 315L630 331Q630 385 613 416T560 448Z" />
<glyph unicode="&#xe7;" glyph-name="ccedilla" horiz-adv-x="506" d="M125 -239Q140 -234 156 -227T185 -211T206 -189T214 -160Q214 -137 202 -124T179 -102L237 -13Q187 -8 149 13T84 66T43 140T29 229Q29 296 52 349T115 438T206 494T313 513Q352 513 382
503T434 475T465 435T476 388Q476 352 455 333T395 313Q384 313 376 313T360 315Q352 316 346 318L332 444Q325 445 319 447Q314 449 307 450T294 451Q265 451 246 437T213 401T195 354T189 308Q189 256 202 219T237 157T288 121T350 109Q373 109 394 116T431 131Q449
141 464 154L487 124Q449 67 403 30T291 -14L267 -61Q295 -69 317 -90T339 -143Q339 -176 321 -199T273 -239T208 -264T138 -280L125 -239Z" />
<glyph unicode="&#xe8;" glyph-name="egrave" horiz-adv-x="555" d="M277 -15Q213 -15 167 6T90 61T44 139T29 229Q29 299 54 352T119 441T207 495T303 513Q360 513 400 493T467 438T505 357T520 259H187Q193 218 209 189T249 140T302 113T363 104Q392 104 417
111T460 129Q481 140 498 154L523 124Q506 102 486 78T436 33T369 -1T277 -15ZM273 448Q239 448 213 417T183 322H352Q352 346 349 368T336 409T312 437T273 448ZM145 753V771H277L325 576H261L145 753Z" />
<glyph unicode="&#xe9;" glyph-name="eacute" horiz-adv-x="555" d="M277 -15Q213 -15 167 6T90 61T44 139T29 229Q29 299 54 352T119 441T207 495T303 513Q360 513 400 493T467 438T505 357T520 259H187Q193 218 209 189T249 140T302 113T363 104Q392 104 417
111T460 129Q481 140 498 154L523 124Q506 102 486 78T436 33T369 -1T277 -15ZM273 448Q239 448 213 417T183 322H352Q352 346 349 368T336 409T312 437T273 448ZM435 771V753L319 576H255L302 771H435Z" />
<glyph unicode="&#xea;" glyph-name="ecircumflex" horiz-adv-x="555" d="M277 -15Q213 -15 167 6T90 61T44 139T29 229Q29 299 54 352T119 441T207 495T303 513Q360 513 400 493T467 438T505 357T520 259H187Q193 218 209 189T249 140T302 113T363 104Q392 104
417 111T460 129Q481 140 498 154L523 124Q506 102 486 78T436 33T369 -1T277 -15ZM273 448Q239 448 213 417T183 322H352Q352 346 349 368T336 409T312 437T273 448ZM151 576L248 771H343L440 576H372L291 664L211 576H151Z" />
<glyph unicode="&#xeb;" glyph-name="edieresis" horiz-adv-x="555" d="M277 -15Q213 -15 167 6T90 61T44 139T29 229Q29 299 54 352T119 441T207 495T303 513Q360 513 400 493T467 438T505 357T520 259H187Q193 218 209 189T249 140T302 113T363 104Q392 104
417 111T460 129Q481 140 498 154L523 124Q506 102 486 78T436 33T369 -1T277 -15ZM273 448Q239 448 213 417T183 322H352Q352 346 349 368T336 409T312 437T273 448ZM177 585Q145 585 122 608T99 663Q99 695 122 718T177 742Q209 742 232 719T255 663Q255 631
232 608T177 585ZM406 585Q374 585 351 608T328 663Q328 695 351 718T406 742Q438 742 461 719T485 663Q485 631 462 608T406 585Z" />
<glyph unicode="&#xec;" glyph-name="igrave" horiz-adv-x="342" d="M278 768V786H410L458 591H394L278 768ZM18 55L86 67V396L18 409V464L259 513V67L320 55V0H18V55Z" />
<glyph unicode="&#xed;" glyph-name="iacute" horiz-adv-x="342" d="M18 55L86 67V396L18 409V464L259 513V67L320 55V0H18V55ZM312 786V768L196 591H132L179 786H312Z" />
<glyph unicode="&#xee;" glyph-name="icircumflex" horiz-adv-x="342" d="M18 55L86 67V396L18 409V464L259 513V67L320 55V0H18V55ZM284 591L381 786H476L573 591H505L424 679L344 591H284Z" />
<glyph unicode="&#xef;" glyph-name="idieresis" horiz-adv-x="342" d="M69 587Q37 587 15 609T-7 663Q-7 695 15 717T69 740Q101 740 123 718T146 663Q146 631 124 609T69 587ZM268 587Q236 587 214 609T191 663Q191 695 213 717T268 740Q300 740 322 718T345
663Q345 631 323 609T268 587ZM18 55L86 67V396L18 409V464L259 513V67L320 55V0H18V55Z" />
<glyph unicode="&#xf0;" glyph-name="eth" horiz-adv-x="612" d="M73 583L198 638Q171 661 142 682T80 725L102 761Q157 743 204 723T294 680L445 747L467 700L349 648Q472 570 526 475T581 273Q581 200 559 146T499 55T411 0T305 -18Q238 -18 187 1T100 55T46
137T28 239Q28 303 52 351T114 432T197 480T285 496Q308 496 334 488Q314 519 291 547T241 601L95 537L73 583ZM404 226Q404 321 376 400Q372 405 365 413T347 429T324 442T297 448Q281 448 266 442T238 419T218 374T210 302Q210 246 219 199T243 118T279 65T323
46Q349 46 365 61T389 102T401 159T404 226Z" />
<glyph unicode="&#xf1;" glyph-name="ntilde" horiz-adv-x="670" d="M18 54L86 67V396L18 409V459L222 515H227L249 427H251Q261 439 277 453T315 481T363 504T420 513Q503 513 545 473T588 346V67L657 54V0H362V55L415 67V299Q415 410 321 409Q301 408 286 403T259
392V67L314 54V0H18V54ZM304 605Q272 614 251 620T216 625T192 612T173 578L135 598L140 611Q158 656 176 681T216 716T263 725T321 713L348 705Q382 695 405 689T444 684T470 697T491 735L529 715L524 700Q505 652 486 626T445 590T395 583T331 597L304 605Z"
/>
<glyph unicode="&#xf2;" glyph-name="ograve" horiz-adv-x="602" d="M211 234Q217 190 227 154T253 94T286 57T327 47Q348 50 363 66T386 111T395 176T391 258Q385 302 375 338T349 398T316 435T275 445Q254 442 239 426T216 381T207 316T211 234ZM301 -18Q232
-18 181 2T94 58T42 140T24 239Q24 296 45 346T103 432T191 490T301 511Q363 511 414 493T501 440T558 360T578 256Q578 198 557 148T500 61T412 3T301 -18ZM154 753V771H286L334 576H270L154 753Z" />
<glyph unicode="&#xf3;" glyph-name="oacute" horiz-adv-x="602" d="M444 771V753L328 576H264L311 771H444ZM211 234Q217 190 227 154T253 94T286 57T327 47Q348 50 363 66T386 111T395 176T391 258Q385 302 375 338T349 398T316 435T275 445Q254 442 239 426T216
381T207 316T211 234ZM301 -18Q232 -18 181 2T94 58T42 140T24 239Q24 296 45 346T103 432T191 490T301 511Q363 511 414 493T501 440T558 360T578 256Q578 198 557 148T500 61T412 3T301 -18Z" />
<glyph unicode="&#xf4;" glyph-name="ocircumflex" horiz-adv-x="602" d="M160 576L257 771H352L449 576H381L300 664L220 576H160ZM211 234Q217 190 227 154T253 94T286 57T327 47Q348 50 363 66T386 111T395 176T391 258Q385 302 375 338T349 398T316 435T275
445Q254 442 239 426T216 381T207 316T211 234ZM301 -18Q232 -18 181 2T94 58T42 140T24 239Q24 296 45 346T103 432T191 490T301 511Q363 511 414 493T501 440T558 360T578 256Q578 198 557 148T500 61T412 3T301 -18Z" />
<glyph unicode="&#xf5;" glyph-name="otilde" horiz-adv-x="602" d="M211 234Q217 190 227 154T253 94T286 57T327 47Q348 50 363 66T386 111T395 176T391 258Q385 302 375 338T349 398T316 435T275 445Q254 442 239 426T216 381T207 316T211 234ZM301 -18Q232
-18 181 2T94 58T42 140T24 239Q24 296 45 346T103 432T191 490T301 511Q363 511 414 493T501 440T558 360T578 256Q578 198 557 148T500 61T412 3T301 -18ZM273 605Q241 614 220 620T185 625T161 612T142 578L104 598L109 611Q127 656 145 681T185 716T232 725T290
713L317 705Q351 695 374 689T413 684T439 697T460 735L498 715L493 700Q474 652 455 626T414 590T364 583T300 597L273 605Z" />
<glyph unicode="&#xf6;" glyph-name="odieresis" horiz-adv-x="602" d="M211 234Q217 190 227 154T253 94T286 57T327 47Q348 50 363 66T386 111T395 176T391 258Q385 302 375 338T349 398T316 435T275 445Q254 442 239 426T216 381T207 316T211 234ZM301 -18Q232
-18 181 2T94 58T42 140T24 239Q24 296 45 346T103 432T191 490T301 511Q363 511 414 493T501 440T558 360T578 256Q578 198 557 148T500 61T412 3T301 -18ZM186 585Q154 585 131 608T108 663Q108 695 131 718T186 742Q218 742 241 719T264 663Q264 631 241 608T186
585ZM415 585Q383 585 360 608T337 663Q337 695 360 718T415 742Q447 742 470 719T494 663Q494 631 471 608T415 585Z" />
<glyph unicode="&#xf7;" glyph-name="divide" horiz-adv-x="558" d="M42 204V270H516V204H42ZM278 -8Q244 -8 220 16T195 76Q195 92 201 107T219 134T246 152T278 159Q295 159 310 152T336 134T355 108T362 76Q362 41 337 17T278 -8ZM279 314Q245 314 221 338T196
398Q196 414 202 429T220 456T247 474T279 481Q296 481 311 474T337 456T356 430T363 398Q363 363 338 339T279 314Z" />
<glyph unicode="&#xf8;" glyph-name="oslash" horiz-adv-x="602" d="M18 -42L100 52Q62 88 43 136T24 239Q24 296 45 346T103 432T191 490T301 511Q349 511 389 500T464 468L520 532H585L503 438Q538 404 558 358T578 256Q578 198 557 148T500 61T412 3T301 -18Q251
-18 211 -8T139 23L83 -42H18ZM199 272Q199 219 208 176L377 368Q362 405 339 425T286 446Q245 446 222 401T199 272ZM316 46Q343 46 359 63T385 105T398 160T401 215Q401 268 392 312L225 121Q241 86 264 66T316 46Z" />
<glyph unicode="&#xf9;" glyph-name="ugrave" horiz-adv-x="666" d="M417 75Q408 62 394 47T358 18T310 -5T248 -15Q221 -15 192 -8T138 17T98 65T82 142V418L14 431V481L255 508V193Q255 148 272 118T333 88Q361 88 379 96T407 113V417L333 430V481L580 508V87L649
73V20L464 -17L417 75ZM188 753V771H320L368 576H304L188 753Z" />
<glyph unicode="&#xfa;" glyph-name="uacute" horiz-adv-x="666" d="M417 75Q408 62 394 47T358 18T310 -5T248 -15Q221 -15 192 -8T138 17T98 65T82 142V418L14 431V481L255 508V193Q255 148 272 118T333 88Q361 88 379 96T407 113V417L333 430V481L580 508V87L649
73V20L464 -17L417 75ZM478 771V753L362 576H298L345 771H478Z" />
<glyph unicode="&#xfb;" glyph-name="ucircumflex" horiz-adv-x="666" d="M417 75Q408 62 394 47T358 18T310 -5T248 -15Q221 -15 192 -8T138 17T98 65T82 142V418L14 431V481L255 508V193Q255 148 272 118T333 88Q361 88 379 96T407 113V417L333 430V481L580
508V87L649 73V20L464 -17L417 75ZM194 576L291 771H386L483 576H415L334 664L254 576H194Z" />
<glyph unicode="&#xfc;" glyph-name="udieresis" horiz-adv-x="666" d="M417 75Q408 62 394 47T358 18T310 -5T248 -15Q221 -15 192 -8T138 17T98 65T82 142V418L14 431V481L255 508V193Q255 148 272 118T333 88Q361 88 379 96T407 113V417L333 430V481L580 508V87L649
73V20L464 -17L417 75ZM220 585Q188 585 165 608T142 663Q142 695 165 718T220 742Q252 742 275 719T298 663Q298 631 275 608T220 585ZM449 585Q417 585 394 608T371 663Q371 695 394 718T449 742Q481 742 504 719T528 663Q528 631 505 608T449 585Z" />
<glyph unicode="&#xfd;" glyph-name="yacute" horiz-adv-x="570" d="M369 436V494H564V436L522 427L315 -96Q296 -145 280 -177T245 -228T207 -255T158 -263Q138 -263 120 -257T88 -238T66 -210T58 -173Q58 -134 81 -113T139 -92Q168 -92 186 -108T218 -150H223L258
-69L48 427L6 437V494H301V436L236 427L335 138H340L438 420L369 436ZM479 771V753L363 576H299L346 771H479Z" />
<glyph unicode="&#xfe;" glyph-name="thorn" horiz-adv-x="622" d="M65 647L-6 664V716L238 746V434Q250 447 265 460T299 484T340 502T389 509Q425 509 462 496T529 454T578 383T597 280Q597 215 574 161T511 68T416 7T297 -15Q280 -15 266 -13T238 -6V-173L357
-186V-240H-3V-186L65 -173V647ZM291 409Q274 409 261 405T238 395V87Q248 73 266 60T317 47Q339 47 359 58T394 91T417 146T426 222Q426 308 391 358T291 409Z" />
<glyph unicode="&#xff;" glyph-name="ydieresis" horiz-adv-x="570" d="M369 436V494H564V436L522 427L315 -96Q296 -145 280 -177T245 -228T207 -255T158 -263Q138 -263 120 -257T88 -238T66 -210T58 -173Q58 -134 81 -113T139 -92Q168 -92 186 -108T218 -150H223L258
-69L48 427L6 437V494H301V436L236 427L335 138H340L438 420L369 436ZM221 585Q189 585 166 608T143 663Q143 695 166 718T221 742Q253 742 276 719T299 663Q299 631 276 608T221 585ZM450 585Q418 585 395 608T372 663Q372 695 395 718T450 742Q482 742 505 719T529
663Q529 631 506 608T450 585Z" />
<glyph unicode="&#x100;" glyph-name="Amacron" horiz-adv-x="789" d="M249 840H539V760H249V840ZM6 52L74 73L306 655L380 659L460 680L707 66L783 54V0H421V56L506 68L458 201H213L170 81L276 56V0H6V52ZM240 278H430L336 540H335L240 278Z" />
<glyph unicode="&#x101;" glyph-name="amacron" horiz-adv-x="580" d="M144 695H434V612H144V695ZM183 -13Q152 -13 125 -3T78 25T47 68T35 125Q35 157 47 180T80 219T130 247T195 267L322 296V328Q322 352 318 374T304 412T278 437T239 447Q228 447 213 444T191
438V331Q178 326 159 321T116 315Q88 315 71 329T53 373Q53 396 73 420T128 464T208 497T302 510Q356 510 393 499T452 464T485 407T495 327V108Q495 81 504 75T536 69H572V27Q549 16 524 7Q503 -1 478 -7T429 -13Q403 -13 386 -6T357 13T339 42T328 79H324Q312
63 300 47T271 17T233 -4T183 -13ZM270 85Q288 85 301 92T322 108V245L284 235Q235 221 219 203T202 158Q202 123 222 104T270 85Z" />
<glyph unicode="&#x102;" glyph-name="Abreve" horiz-adv-x="789" d="M6 52L74 73L306 655L380 659L460 680L707 66L783 54V0H421V56L506 68L458 201H213L170 81L276 56V0H6V52ZM240 278H430L336 540H335L240 278ZM390 724Q351 724 324 737T278 772T252 821T242
878H296Q307 852 329 834T396 816Q442 816 464 835T495 878H547Q546 849 537 822T509 773T461 738T390 724Z" />
<glyph unicode="&#x103;" glyph-name="abreve" horiz-adv-x="580" d="M183 -13Q152 -13 125 -3T78 25T47 68T35 125Q35 157 47 180T80 219T130 247T195 267L322 296V328Q322 352 318 374T304 412T278 437T239 447Q228 447 213 444T191 438V331Q178 326 159 321T116
315Q88 315 71 329T53 373Q53 396 73 420T128 464T208 497T302 510Q356 510 393 499T452 464T485 407T495 327V108Q495 81 504 75T536 69H572V27Q549 16 524 7Q503 -1 478 -7T429 -13Q403 -13 386 -6T357 13T339 42T328 79H324Q312 63 300 47T271 17T233 -4T183
-13ZM270 85Q288 85 301 92T322 108V245L284 235Q235 221 219 203T202 158Q202 123 222 104T270 85ZM284 566Q245 566 220 579T178 616T156 668T149 729H203Q211 692 231 673T290 653Q328 653 348 672T377 729H429Q429 696 421 667T396 615T351 579T284 566Z" />
<glyph unicode="&#x104;" glyph-name="Aogonek" horiz-adv-x="789" d="M6 52L74 73L306 655L380 659L460 680L707 66L783 54V0H571Q542 -14 523 -28T492 -57T477 -86T472 -113Q472 -140 490 -154T528 -168Q553 -168 572 -156T617 -121L642 -144Q629 -165 614 -187T580
-227T537 -257T479 -269Q425 -269 393 -240T361 -166Q361 -143 370 -123T397 -81T445 -32T517 35L457 201H213L170 81L276 56V0H6V52ZM240 278H430L336 540H335L240 278Z" />
<glyph unicode="&#x105;" glyph-name="aogonek" horiz-adv-x="580" d="M572 27Q516 3 482 -15T429 -49T404 -78T397 -105Q397 -128 411 -143T447 -158Q471 -158 491 -146T538 -111L563 -134Q550 -155 535 -177T501 -217T458 -247T400 -259Q346 -259 315 -230T284
-156Q284 -132 292 -113T317 -78T358 -46T413 -14V-10Q369 -6 351 18T328 79H324Q312 63 300 47T271 17T233 -4T183 -13Q152 -13 125 -3T78 25T47 68T35 125Q35 157 47 180T80 219T130 247T195 267L322 296V328Q322 352 318 374T304 412T278 437T239 447Q228 447
213 444T191 438V331Q178 326 159 321T116 315Q88 315 71 329T53 373Q53 396 73 420T128 464T208 497T302 510Q356 510 393 499T452 464T485 407T495 327V108Q495 81 504 75T536 69H572V27ZM270 85Q288 85 301 92T322 108V245L284 235Q235 221 219 203T202 158Q202
123 222 104T270 85Z" />
<glyph unicode="&#x106;" glyph-name="Cacute" horiz-adv-x="726" d="M600 875V853L472 736H388L456 875H600ZM406 -18Q308 -18 238 9T123 81T57 183T36 300Q36 384 68 455T158 577T292 656T457 685Q521 685 572 669T666 631L672 448H619L552 593Q535 603 512
611T457 619Q414 619 375 602T306 552T259 469T241 357Q241 284 259 228T307 132T379 73T467 53Q496 53 519 59T559 74L644 230H698L674 40Q614 13 549 -2T406 -18Z" />
<glyph unicode="&#x107;" glyph-name="cacute" horiz-adv-x="506" d="M270 -15Q213 -15 168 4T93 57T46 134T29 229Q29 296 52 349T115 438T206 494T313 513Q352 513 382 503T434 475T465 435T476 388Q476 352 455 333T395 313Q384 313 376 313T360 315Q352 316
346 318L332 444Q325 445 319 447Q314 449 307 450T294 451Q265 451 246 437T213 401T195 354T189 308Q189 256 202 219T237 157T288 121T350 109Q373 109 394 116T431 131Q449 141 464 154L487 124Q466 94 444 69T396 25T339 -4T270 -15ZM429 771V753L313 576H249L296
771H429Z" />
<glyph unicode="&#x108;" glyph-name="Ccircumflex" horiz-adv-x="726" d="M282 736L384 875H491L597 736H521L436 794L352 736H282ZM406 -18Q308 -18 238 9T123 81T57 183T36 300Q36 384 68 455T158 577T292 656T457 685Q521 685 572 669T666 631L672 448H619L552
593Q535 603 512 611T457 619Q414 619 375 602T306 552T259 469T241 357Q241 284 259 228T307 132T379 73T467 53Q496 53 519 59T559 74L644 230H698L674 40Q614 13 549 -2T406 -18Z" />
<glyph unicode="&#x109;" glyph-name="ccircumflex" horiz-adv-x="506" d="M145 576L242 771H337L434 576H366L285 664L205 576H145ZM270 -15Q213 -15 168 4T93 57T46 134T29 229Q29 296 52 349T115 438T206 494T313 513Q352 513 382 503T434 475T465 435T476
388Q476 352 455 333T395 313Q384 313 376 313T360 315Q352 316 346 318L332 444Q325 445 319 447Q314 449 307 450T294 451Q265 451 246 437T213 401T195 354T189 308Q189 256 202 219T237 157T288 121T350 109Q373 109 394 116T431 131Q449 141 464 154L487 124Q466
94 444 69T396 25T339 -4T270 -15Z" />
<glyph unicode="&#x10a;" glyph-name="Cdotaccent" horiz-adv-x="726" d="M437 735Q392 735 366 762T340 828Q340 866 366 892T437 919Q482 919 508 893T534 828Q534 790 507 763T437 735ZM406 -18Q308 -18 238 9T123 81T57 183T36 300Q36 384 68 455T158 577T292
656T457 685Q521 685 572 669T666 631L672 448H619L552 593Q535 603 512 611T457 619Q414 619 375 602T306 552T259 469T241 357Q241 284 259 228T307 132T379 73T467 53Q496 53 519 59T559 74L644 230H698L674 40Q614 13 549 -2T406 -18Z" />
<glyph unicode="&#x10b;" glyph-name="cdotaccent" horiz-adv-x="506" d="M286 569Q241 569 215 596T189 662Q189 700 215 726T286 753Q331 753 357 727T383 662Q383 624 356 597T286 569ZM270 -15Q213 -15 168 4T93 57T46 134T29 229Q29 296 52 349T115 438T206
494T313 513Q352 513 382 503T434 475T465 435T476 388Q476 352 455 333T395 313Q384 313 376 313T360 315Q352 316 346 318L332 444Q325 445 319 447Q314 449 307 450T294 451Q265 451 246 437T213 401T195 354T189 308Q189 256 202 219T237 157T288 121T350 109Q373
109 394 116T431 131Q449 141 464 154L487 124Q466 94 444 69T396 25T339 -4T270 -15Z" />
<glyph unicode="&#x10c;" glyph-name="Ccaron" horiz-adv-x="726" d="M406 -18Q308 -18 238 9T123 81T57 183T36 300Q36 384 68 455T158 577T292 656T457 685Q521 685 572 669T666 631L672 448H619L552 593Q535 603 512 611T457 619Q414 619 375 602T306 552T259
469T241 357Q241 284 259 228T307 132T379 73T467 53Q496 53 519 59T559 74L644 230H698L674 40Q614 13 549 -2T406 -18ZM590 875L488 736H381L279 875H349L436 816L522 875H590Z" />
<glyph unicode="&#x10d;" glyph-name="ccaron" horiz-adv-x="506" d="M427 771L330 576H235L138 771H206L286 682L367 771H427ZM270 -15Q213 -15 168 4T93 57T46 134T29 229Q29 296 52 349T115 438T206 494T313 513Q352 513 382 503T434 475T465 435T476 388Q476
352 455 333T395 313Q384 313 376 313T360 315Q352 316 346 318L332 444Q325 445 319 447Q314 449 307 450T294 451Q265 451 246 437T213 401T195 354T189 308Q189 256 202 219T237 157T288 121T350 109Q373 109 394 116T431 131Q449 141 464 154L487 124Q466 94
444 69T396 25T339 -4T270 -15Z" />
<glyph unicode="&#x10e;" glyph-name="Dcaron" horiz-adv-x="814" d="M545 875L443 736H336L234 875H304L391 816L477 875H545ZM28 55L115 68V595L33 609V664L393 669Q482 670 553 647T675 583T753 484T781 359Q781 269 748 201T655 86T516 17T343 -4L28 0V55ZM300
100Q301 83 311 73T334 58T362 52T387 51Q432 52 466 73T525 131T561 216T574 317Q574 403 552 461T491 553T403 600T299 609L300 100Z" />
<glyph unicode="&#x10f;" glyph-name="dcaron" horiz-adv-x="646" d="M274 724L561 746V84L633 68V16L441 -10L402 68Q389 52 374 37T340 11T297 -8T239 -15Q197 -15 159 2T92 51T46 129T29 234Q29 300 55 352T122 439T216 492T323 511Q339 511 355 508T388 499V643L274
669V724ZM337 87Q353 87 366 90T388 99V388Q354 441 301 441Q263 441 236 406T208 293Q208 240 218 202T246 138T287 100T337 87ZM616 536L640 747H756V716L658 536H616Z" />
<glyph unicode="&#x110;" glyph-name="Dcroat" horiz-adv-x="814" d="M28 55L115 68V306H21V371H115V595L33 609V664L393 669Q482 670 553 647T675 583T753 484T781 359Q781 269 748 201T655 86T516 17T343 -4L28 0V55ZM299 306L300 100Q301 83 311 73T334 58T362
52T387 51Q432 52 466 73T525 131T561 216T574 317Q574 403 552 461T491 553T403 600T299 609V371H425V306H299Z" />
<glyph unicode="&#x111;" glyph-name="dcroat" horiz-adv-x="646" d="M274 724L561 746V604H635V554H561V84L633 68V16L441 -10L402 68Q389 52 374 37T340 11T297 -8T239 -15Q197 -15 159 2T92 51T46 129T29 234Q29 300 55 351T122 438T216 491T323 509Q339 509
355 506T388 498V554H210V604H388V653L274 669V724ZM337 87Q353 87 366 90T388 99V388Q354 441 301 441Q263 441 236 406T208 293Q208 240 218 202T246 138T287 100T337 87Z" />
<glyph unicode="&#x112;" glyph-name="Emacron" horiz-adv-x="704" d="M307 307V68H529L618 216H670L635 0H33V55L120 68V595L38 609V664H535L635 671V474H583L531 603H307V368H424L450 453H498V228H448L424 307H307ZM225 840H515V760H225V840Z" />
<glyph unicode="&#x113;" glyph-name="emacron" horiz-adv-x="555" d="M147 695H437V612H147V695ZM277 -15Q213 -15 167 6T90 61T44 139T29 229Q29 299 54 352T119 441T207 495T303 513Q360 513 400 493T467 438T505 357T520 259H187Q193 218 209 189T249 140T302
113T363 104Q392 104 417 111T460 129Q481 140 498 154L523 124Q506 102 486 78T436 33T369 -1T277 -15ZM273 448Q239 448 213 417T183 322H352Q352 346 349 368T336 409T312 437T273 448Z" />
<glyph unicode="&#x114;" glyph-name="Ebreve" horiz-adv-x="704" d="M366 724Q327 724 300 737T254 772T228 821T218 878H272Q283 852 305 834T372 816Q418 816 440 835T471 878H523Q522 849 513 822T485 773T437 738T366 724ZM307 307V68H529L618 216H670L635
0H33V55L120 68V595L38 609V664H535L635 671V474H583L531 603H307V368H424L450 453H498V228H448L424 307H307Z" />
<glyph unicode="&#x115;" glyph-name="ebreve" horiz-adv-x="555" d="M287 566Q248 566 223 579T181 616T159 668T152 729H206Q214 692 234 673T293 653Q331 653 351 672T380 729H432Q432 696 424 667T399 615T354 579T287 566ZM277 -15Q213 -15 167 6T90 61T44
139T29 229Q29 299 54 352T119 441T207 495T303 513Q360 513 400 493T467 438T505 357T520 259H187Q193 218 209 189T249 140T302 113T363 104Q392 104 417 111T460 129Q481 140 498 154L523 124Q506 102 486 78T436 33T369 -1T277 -15ZM273 448Q239 448 213 417T183
322H352Q352 346 349 368T336 409T312 437T273 448Z" />
<glyph unicode="&#x116;" glyph-name="Edotaccent" horiz-adv-x="704" d="M370 735Q325 735 299 762T273 828Q273 866 299 892T370 919Q415 919 441 893T467 828Q467 790 440 763T370 735ZM307 307V68H529L618 216H670L635 0H33V55L120 68V595L38 609V664H535L635
671V474H583L531 603H307V368H424L450 453H498V228H448L424 307H307Z" />
<glyph unicode="&#x117;" glyph-name="edotaccent" horiz-adv-x="555" d="M292 569Q247 569 221 596T195 662Q195 700 221 726T292 753Q337 753 363 727T389 662Q389 624 362 597T292 569ZM277 -15Q213 -15 167 6T90 61T44 139T29 229Q29 299 54 352T119 441T207
495T303 513Q360 513 400 493T467 438T505 357T520 259H187Q193 218 209 189T249 140T302 113T363 104Q392 104 417 111T460 129Q481 140 498 154L523 124Q506 102 486 78T436 33T369 -1T277 -15ZM273 448Q239 448 213 417T183 322H352Q352 346 349 368T336 409T312
437T273 448Z" />
<glyph unicode="&#x118;" glyph-name="Eogonek" horiz-adv-x="704" d="M307 307V68H529L618 216H670L635 0H512Q471 -41 457 -67T443 -116Q443 -141 459 -154T495 -168Q520 -168 539 -156T584 -121L609 -144Q596 -165 581 -187T547 -227T504 -257T446 -269Q392
-269 361 -240T330 -166Q330 -126 357 -89T450 0H33V55L120 68V595L38 609V664H535L635 671V474H583L531 603H307V368H424L450 453H498V228H448L424 307H307Z" />
<glyph unicode="&#x119;" glyph-name="eogonek" horiz-adv-x="555" d="M277 -15Q213 -15 167 6T90 61T44 139T29 229Q29 299 54 352T119 441T207 495T303 513Q360 513 400 493T467 438T505 357T520 259H187Q193 218 209 189T249 140T302 113T363 104Q392 104 417
111T460 129Q481 140 498 154L523 124Q507 103 485 77T431 29Q403 7 384 -10T353 -43T336 -73T330 -101Q330 -128 344 -143T382 -158Q407 -158 426 -146T471 -110L496 -134Q483 -155 468 -177T434 -217T391 -247T333 -259Q279 -259 248 -230T217 -156Q217 -138
222 -122T240 -89T274 -53T325 -11Q314 -13 302 -14T277 -15ZM273 448Q239 448 213 417T183 322H352Q352 346 349 368T336 409T312 437T273 448Z" />
<glyph unicode="&#x11a;" glyph-name="Ecaron" horiz-adv-x="704" d="M524 875L422 736H315L213 875H283L370 816L456 875H524ZM307 307V68H529L618 216H670L635 0H33V55L120 68V595L38 609V664H535L635 671V474H583L531 603H307V368H424L450 453H498V228H448L424
307H307Z" />
<glyph unicode="&#x11b;" glyph-name="ecaron" horiz-adv-x="555" d="M433 771L336 576H241L144 771H212L292 682L373 771H433ZM277 -15Q213 -15 167 6T90 61T44 139T29 229Q29 299 54 352T119 441T207 495T303 513Q360 513 400 493T467 438T505 357T520 259H187Q193
218 209 189T249 140T302 113T363 104Q392 104 417 111T460 129Q481 140 498 154L523 124Q506 102 486 78T436 33T369 -1T277 -15ZM273 448Q239 448 213 417T183 322H352Q352 346 349 368T336 409T312 437T273 448Z" />
<glyph unicode="&#x11c;" glyph-name="Gcircumflex" horiz-adv-x="775" d="M291 736L393 875H500L606 736H530L445 794L361 736H291ZM406 -18Q310 -18 241 9T126 80T58 182T36 299Q36 384 69 455T161 577T296 656T463 685Q529 685 583 669T680 631L686 448H633L568
591Q554 600 525 609T455 619Q414 619 376 602T307 552T259 471T241 359Q241 284 259 227T308 131T382 73T472 53Q489 53 505 55T532 61V253L447 264V318H745V264L697 250V43L659 28Q617 11 555 -3T406 -18Z" />
<glyph unicode="&#x11d;" glyph-name="gcircumflex" horiz-adv-x="584" d="M132 576L229 771H324L421 576H353L272 664L192 576H132ZM452 427L450 424Q467 408 480 381T494 316Q494 281 478 250T433 194T361 156T267 142Q209 142 165 158Q160 150 154 139T147
116Q147 96 162 92T210 87L374 81Q421 79 454 68T509 37T540 -7T550 -62Q550 -101 523 -139T449 -208T344 -257T220 -276Q166 -276 126 -265T61 -237T23 -197T10 -151Q10 -128 21 -110T48 -78T83 -54T118 -37L122 -35V-33L40 45Q42 58 49 75T66 112T90 149T117
181Q79 206 58 242T37 323Q37 366 55 400T105 459T178 497T267 511Q304 511 338 503T407 480L572 501V414L452 427ZM291 200Q326 205 340 243T343 337Q338 364 328 387T305 426T277 449T243 454Q207 449 193 412T190 318Q201 263 228 229T291 200ZM163 -56Q157
-71 157 -91Q157 -112 169 -129T201 -158T247 -177T303 -184Q374 -184 406 -161T439 -109Q439 -90 426 -79T391 -64L163 -56Z" />
<glyph unicode="&#x11e;" glyph-name="Gbreve" horiz-adv-x="775" d="M406 -18Q310 -18 241 9T126 80T58 182T36 299Q36 384 69 455T161 577T296 656T463 685Q529 685 583 669T680 631L686 448H633L568 591Q554 600 525 609T455 619Q414 619 376 602T307 552T259
471T241 359Q241 284 259 227T308 131T382 73T472 53Q489 53 505 55T532 61V253L447 264V318H745V264L697 250V43L659 28Q617 11 555 -3T406 -18ZM442 724Q403 724 376 737T330 772T304 821T294 878H348Q359 852 381 834T448 816Q494 816 516 835T547 878H599Q598
849 589 822T561 773T513 738T442 724Z" />
<glyph unicode="&#x11f;" glyph-name="gbreve" horiz-adv-x="584" d="M452 427L450 424Q467 408 480 381T494 316Q494 281 478 250T433 194T361 156T267 142Q209 142 165 158Q160 150 154 139T147 116Q147 96 162 92T210 87L374 81Q421 79 454 68T509 37T540 -7T550
-62Q550 -101 523 -139T449 -208T344 -257T220 -276Q166 -276 126 -265T61 -237T23 -197T10 -151Q10 -128 21 -110T48 -78T83 -54T118 -37L122 -35V-33L40 45Q42 58 49 75T66 112T90 149T117 181Q79 206 58 242T37 323Q37 366 55 400T105 459T178 497T267 511Q304
511 338 503T407 480L572 501V414L452 427ZM291 200Q326 205 340 243T343 337Q338 364 328 387T305 426T277 449T243 454Q207 449 193 412T190 318Q201 263 228 229T291 200ZM163 -56Q157 -71 157 -91Q157 -112 169 -129T201 -158T247 -177T303 -184Q374 -184 406
-161T439 -109Q439 -90 426 -79T391 -64L163 -56ZM268 566Q229 566 204 579T162 616T140 668T133 729H187Q195 692 215 673T274 653Q312 653 332 672T361 729H413Q413 696 405 667T380 615T335 579T268 566Z" />
<glyph unicode="&#x120;" glyph-name="Gdotaccent" horiz-adv-x="775" d="M446 735Q401 735 375 762T349 828Q349 866 375 892T446 919Q491 919 517 893T543 828Q543 790 516 763T446 735ZM406 -18Q310 -18 241 9T126 80T58 182T36 299Q36 384 69 455T161 577T296
656T463 685Q529 685 583 669T680 631L686 448H633L568 591Q554 600 525 609T455 619Q414 619 376 602T307 552T259 471T241 359Q241 284 259 227T308 131T382 73T472 53Q489 53 505 55T532 61V253L447 264V318H745V264L697 250V43L659 28Q617 11 555 -3T406 -18Z"
/>
<glyph unicode="&#x121;" glyph-name="gdotaccent" horiz-adv-x="584" d="M273 569Q228 569 202 596T176 662Q176 700 202 726T273 753Q318 753 344 727T370 662Q370 624 343 597T273 569ZM452 427L450 424Q467 408 480 381T494 316Q494 281 478 250T433 194T361
156T267 142Q209 142 165 158Q160 150 154 139T147 116Q147 96 162 92T210 87L374 81Q421 79 454 68T509 37T540 -7T550 -62Q550 -101 523 -139T449 -208T344 -257T220 -276Q166 -276 126 -265T61 -237T23 -197T10 -151Q10 -128 21 -110T48 -78T83 -54T118 -37L122
-35V-33L40 45Q42 58 49 75T66 112T90 149T117 181Q79 206 58 242T37 323Q37 366 55 400T105 459T178 497T267 511Q304 511 338 503T407 480L572 501V414L452 427ZM291 200Q326 205 340 243T343 337Q338 364 328 387T305 426T277 449T243 454Q207 449 193 412T190
318Q201 263 228 229T291 200ZM163 -56Q157 -71 157 -91Q157 -112 169 -129T201 -158T247 -177T303 -184Q374 -184 406 -161T439 -109Q439 -90 426 -79T391 -64L163 -56Z" />
<glyph unicode="&#x122;" glyph-name="Gcommaaccent" horiz-adv-x="775" d="M406 -18Q310 -18 241 9T126 80T58 182T36 299Q36 384 69 455T161 577T296 656T463 685Q529 685 583 669T680 631L686 448H633L568 591Q554 600 525 609T455 619Q414 619 376 602T307
552T259 471T241 359Q241 284 259 227T308 131T382 73T472 53Q489 53 505 55T532 61V253L447 264V318H745V264L697 250V43L659 28Q617 11 555 -3T406 -18ZM281 -249Q329 -232 348 -214T368 -172Q368 -149 348 -138T306 -127V-116Q314 -81 338 -68T391 -54Q433 -54
458 -77T483 -139Q483 -184 440 -223T295 -286L281 -249Z" />
<glyph unicode="&#x123;" glyph-name="gcommaaccent" horiz-adv-x="584" d="M374 774Q326 757 307 739T287 697Q287 674 307 663T349 652V641Q341 606 317 593T264 579Q222 579 197 602T172 664Q172 709 215 748T360 811L374 774ZM452 427L450 424Q467 408 480
381T494 316Q494 281 478 250T433 194T361 156T267 142Q209 142 165 158Q160 150 154 139T147 116Q147 96 162 92T210 87L374 81Q421 79 454 68T509 37T540 -7T550 -62Q550 -101 523 -139T449 -208T344 -257T220 -276Q166 -276 126 -265T61 -237T23 -197T10 -151Q10
-128 21 -110T48 -78T83 -54T118 -37L122 -35V-33L40 45Q42 58 49 75T66 112T90 149T117 181Q79 206 58 242T37 323Q37 366 55 400T105 459T178 497T267 511Q304 511 338 503T407 480L572 501V414L452 427ZM291 200Q326 205 340 243T343 337Q338 364 328 387T305
426T277 449T243 454Q207 449 193 412T190 318Q201 263 228 229T291 200ZM163 -56Q157 -71 157 -91Q157 -112 169 -129T201 -158T247 -177T303 -184Q374 -184 406 -161T439 -109Q439 -90 426 -79T391 -64L163 -56Z" />
<glyph unicode="&#x124;" glyph-name="Hcircumflex" horiz-adv-x="861" d="M475 55L559 68V288H302V68L386 55V0H28V55L115 68V595L33 609V664H379V609L302 595V368H559V595L482 609V664H828V609L746 595V68L833 55V0H475V55ZM275 736L377 875H484L590 736H514L429
794L345 736H275Z" />
<glyph unicode="&#x125;" glyph-name="hcircumflex" horiz-adv-x="672" d="M365 55L418 67V299Q418 410 324 409Q304 408 289 403T262 392V67L317 54V0H21V54L89 67V647L18 664V716L262 746V435Q274 447 290 461T326 486T371 505T423 513Q506 513 548 473T591
346V67L660 54V0H365V55ZM184 781L286 920H393L499 781H423L338 839L254 781H184Z" />
<glyph unicode="&#x126;" glyph-name="Hbar" horiz-adv-x="861" d="M475 55L559 68V288H302V68L386 55V0H28V55L115 68V453H19V519H115V595L33 609V664H379V609L302 595V519H559V595L482 609V664H828V609L746 595V519H843V453H746V68L833 55V0H475V55ZM302 368H559V453H302V368Z"
/>
<glyph unicode="&#x127;" glyph-name="hbar" horiz-adv-x="672" d="M15 604H89V653L18 664V716L262 746V604H440V554H262V435Q274 447 290 461T326 486T371 505T423 513Q506 513 548 473T591 346V67L660 54V0H365V55L418 67V299Q418 410 324 409Q304 408 289 403T262
392V67L317 54V0H21V54L89 67V554H15V604Z" />
<glyph unicode="&#x128;" glyph-name="Itilde" horiz-adv-x="417" d="M186 758Q156 766 138 769T107 770T87 758T71 733L33 748L36 761Q47 808 64 833T103 867T150 875T205 864L232 857Q264 848 284 845T318 843T340 855T358 883L398 872L394 855Q383 807 365
782T323 747T271 739T213 751L186 758ZM28 55L115 68V595L33 609V664H384V609L302 595V68L389 55V0H28V55Z" />
<glyph unicode="&#x129;" glyph-name="itilde" horiz-adv-x="342" d="M148 603Q119 613 99 616T66 617T45 604T30 578L-8 598L-3 611Q11 648 26 671T62 705T109 717T171 709L179 707Q212 699 233 695T269 692T291 704T308 735L346 715L341 700Q326 660 310 635T273
597T224 586T157 600L148 603ZM18 55L86 67V396L18 409V464L259 513V67L320 55V0H18V55Z" />
<glyph unicode="&#x12a;" glyph-name="Imacron" horiz-adv-x="417" d="M63 840H353V760H63V840ZM28 55L115 68V595L33 609V664H384V609L302 595V68L389 55V0H28V55Z" />
<glyph unicode="&#x12b;" glyph-name="imacron" horiz-adv-x="342" d="M29 680H299V597H29V680ZM18 55L86 67V396L18 409V464L259 513V67L320 55V0H18V55Z" />
<glyph unicode="&#x12c;" glyph-name="Ibreve" horiz-adv-x="417" d="M204 724Q165 724 138 737T92 772T66 821T56 878H110Q121 852 143 834T210 816Q256 816 278 835T309 878H361Q360 849 351 822T323 773T275 738T204 724ZM28 55L115 68V595L33 609V664H384V609L302
595V68L389 55V0H28V55Z" />
<glyph unicode="&#x12d;" glyph-name="ibreve" horiz-adv-x="342" d="M18 55L86 67V396L18 409V464L259 513V67L320 55V0H18V55ZM420 581Q381 581 356 594T314 631T292 683T285 744H339Q347 707 367 688T426 668Q464 668 484 687T513 744H565Q565 711 557 682T532
630T487 594T420 581Z" />
<glyph unicode="&#x12e;" glyph-name="Iogonek" horiz-adv-x="417" d="M28 55L115 68V595L33 609V664H384V609L302 595V68L389 55V0H235Q218 -21 207 -37T190 -67T182 -92T179 -116Q179 -141 195 -154T231 -168Q256 -168 275 -156T320 -121L345 -144Q332 -165
317 -187T283 -227T240 -257T182 -269Q128 -269 97 -240T66 -166Q66 -126 89 -89T170 0H28V55Z" />
<glyph unicode="&#x12f;" glyph-name="iogonek" horiz-adv-x="342" d="M18 55L86 67V396L18 409V464L259 513V67L320 55V0H207Q171 -40 157 -66T143 -116Q143 -141 159 -154T195 -168Q220 -168 239 -156T284 -121L309 -144Q296 -165 281 -187T247 -227T204 -257T146
-269Q92 -269 61 -240T30 -166Q30 -124 57 -84T136 0H18V55ZM173 569Q128 569 102 596T76 662Q76 700 102 726T173 753Q218 753 244 727T270 662Q270 624 243 597T173 569Z" />
<glyph unicode="&#x130;" glyph-name="Idotaccent" horiz-adv-x="417" d="M28 55L115 68V595L33 609V664H384V609L302 595V68L389 55V0H28V55ZM208 735Q163 735 137 762T111 828Q111 866 137 892T208 919Q253 919 279 893T305 828Q305 790 278 763T208 735Z" />
<glyph unicode="&#x131;" glyph-name="dotlessi" horiz-adv-x="342" d="M18 55L86 67V396L18 409V464L259 513V67L320 55V0H18V55Z" />
<glyph unicode="&#x132;" glyph-name="IJ" horiz-adv-x="850" d="M28 55L115 68V595L33 609V664H384V609L302 595V68L389 55V0H28V55ZM719 109Q719 37 700 -23T644 -127T556 -195T437 -220L423 -168Q462 -158 484 -134T517 -77T530 -2T533 85V595L449 609V664H803V609L719
595V109Z" />
<glyph unicode="&#x133;" glyph-name="ij" horiz-adv-x="667" d="M18 55L86 67V396L18 409V464L259 513V67L320 55V0H18V55ZM173 569Q128 569 102 596T76 662Q76 700 102 726T173 753Q218 753 244 727T270 662Q270 624 243 597T173 569ZM328 -191Q346 -181 362
-164T391 -119T410 -48T418 55V396L350 409V464L591 513V73Q591 -2 575 -54T534 -142Q508 -181 476 -202T416 -232Q383 -243 351 -243L328 -191ZM505 569Q460 569 434 596T408 662Q408 700 434 726T505 753Q550 753 576 727T602 662Q602 624 575 597T505 569Z"
/>
<glyph unicode="&#x134;" glyph-name="Jcircumflex" horiz-adv-x="438" d="M317 109Q317 37 298 -23T242 -127T154 -195T35 -220L21 -168Q60 -158 82 -134T115 -77T128 -2T131 85V595L47 609V664H401V609L317 595V109ZM72 736L174 875H281L387 736H311L226 794L142
736H72Z" />
<glyph unicode="&#x135;" glyph-name="jcircumflex" horiz-adv-x="331" d="M-7 -191Q11 -181 27 -164T56 -119T75 -48T83 55V396L15 409V464L256 513V73Q256 -2 240 -54T199 -142Q173 -181 141 -202T81 -232Q48 -243 16 -243L-7 -191ZM281 591L378 786H473L570
591H502L421 679L341 591H281Z" />
<glyph unicode="&#x136;" glyph-name="Kcommaaccent" horiz-adv-x="793" d="M28 55L115 68V595L33 609V664H381V609L302 595V68L369 55V0H28V55ZM311 357V367L381 387L578 589L502 610V664H766V612L680 589L493 402L726 68L804 55V0H547L311 357ZM335 -249Q383
-232 402 -214T422 -172Q422 -149 402 -138T360 -127V-116Q368 -81 392 -68T445 -54Q487 -54 512 -77T537 -139Q537 -184 494 -223T349 -286L335 -249Z" />
<glyph unicode="&#x137;" glyph-name="kcommaaccent" horiz-adv-x="648" d="M89 647L18 664V716L262 746V67L322 54V0H21V54L89 67V647ZM548 -19Q520 -19 500 -15T465 0T437 25T411 60L273 277V287L334 303L440 421L345 442V494H629V443L552 423L432 307L648 25Q641
14 628 4Q617 -4 598 -11T548 -19ZM250 -249Q298 -232 317 -214T337 -172Q337 -149 317 -138T275 -127V-116Q283 -81 307 -68T360 -54Q402 -54 427 -77T452 -139Q452 -184 409 -223T264 -286L250 -249Z" />
<glyph unicode="&#x138;" glyph-name="kgreenlandic" horiz-adv-x="648" d="M86 396L18 409V460L253 515H259V67L319 54V0H18V54L86 67V396ZM545 -19Q517 -19 497 -15T462 0T434 25T408 60L270 277V287L331 303L437 421L342 442V494H626V443L549 423L429 307L645
25Q638 14 625 4Q614 -4 595 -11T545 -19Z" />
<glyph unicode="&#x139;" glyph-name="Lacute" horiz-adv-x="649" d="M479 68L578 241H630L590 0H28V55L115 68V595L33 609V664H387V609L302 595V68H479ZM384 875V853L256 736H172L240 875H384Z" />
<glyph unicode="&#x13a;" glyph-name="lacute" horiz-adv-x="347" d="M21 54L89 67V647L18 664V716L262 746V67L334 54V0H21V54ZM339 920V898L211 781H127L195 920H339Z" />
<glyph unicode="&#x13b;" glyph-name="Lcommaaccent" horiz-adv-x="649" d="M479 68L578 241H630L590 0H28V55L115 68V595L33 609V664H387V609L302 595V68H479ZM220 7Q268 24 287 42T307 84Q307 107 287 118T245 129V140Q253 175 277 188T330 202Q372 202 397
179T422 117Q422 72 379 33T234 -30L220 7Z" />
<glyph unicode="&#x13c;" glyph-name="lcommaaccent" horiz-adv-x="347" d="M21 54L89 67V647L18 664V716L262 746V67L334 54V0H21V54ZM323 7Q371 24 390 42T410 84Q410 107 390 118T348 129V140Q356 175 380 188T433 202Q475 202 500 179T525 117Q525 72 482
33T337 -30L323 7Z" />
<glyph unicode="&#x13d;" glyph-name="Lcaron" horiz-adv-x="649" d="M479 68L578 241H630L590 0H28V55L115 68V595L33 609V664H387V609L302 595V68H479ZM452 476L476 687H592V656L494 476H452Z" />
<glyph unicode="&#x13e;" glyph-name="lcaron" horiz-adv-x="347" d="M21 54L89 67V647L18 664V716L262 746V67L334 54V0H21V54ZM317 535L341 746H457V715L359 535H317Z" />
<glyph unicode="&#x13f;" glyph-name="Ldot" horiz-adv-x="649" d="M479 68L578 221H630L590 0H28V55L115 68V595L33 609V664H387V609L302 595V68H479ZM537 304Q502 304 477 329T452 388Q452 406 459 421T477 448T504 467T537 474Q555 474 570 467T597 449T616
422T623 388Q623 371 616 356T598 330T571 311T537 304Z" />
<glyph unicode="&#x140;" glyph-name="ldot" horiz-adv-x="470" d="M412 294Q377 294 352 319T327 378Q327 396 334 411T352 438T379 457T412 464Q430 464 445 457T472 439T491 412T498 378Q498 361 491 346T473 320T446 301T412 294ZM21 54L89 67V647L18 664V716L262
746V67L334 54V0H21V54Z" />
<glyph unicode="&#x141;" glyph-name="Lslash" horiz-adv-x="649" d="M29 313L115 334V595L33 609V664H387V609L302 595V380L493 427V366L302 319V68H479L578 241H630L590 0H28V55L115 68V273L29 252V313Z" />
<glyph unicode="&#x142;" glyph-name="lslash" horiz-adv-x="347" d="M7 337L89 373V647L18 664V716L262 746V449L355 490V417L262 376V67L334 54V0H21V54L89 67V300L7 264V337Z" />
<glyph unicode="&#x143;" glyph-name="Nacute" horiz-adv-x="831" d="M596 0L194 477L199 80L338 52V0H28V55L115 74L116 579L27 610V664H279L646 227L643 581L504 612V664H808V609L726 587V77L729 0H596ZM580 875V853L452 736H368L436 875H580Z" />
<glyph unicode="&#x144;" glyph-name="nacute" horiz-adv-x="670" d="M18 54L86 67V396L18 409V459L222 515H227L249 427H251Q261 439 277 453T315 481T363 504T420 513Q503 513 545 473T588 346V67L657 54V0H362V55L415 67V299Q415 410 321 409Q301 408 286 403T259
392V67L314 54V0H18V54ZM490 771V753L374 576H310L357 771H490Z" />
<glyph unicode="&#x145;" glyph-name="Ncommaaccent" horiz-adv-x="831" d="M596 0L194 477L199 80L338 52V0H28V55L115 74L116 579L27 610V664H279L646 227L643 581L504 612V664H808V609L726 587V77L729 0H596ZM308 -249Q356 -232 375 -214T395 -172Q395 -149
375 -138T333 -127V-116Q341 -81 365 -68T418 -54Q460 -54 485 -77T510 -139Q510 -184 467 -223T322 -286L308 -249Z" />
<glyph unicode="&#x146;" glyph-name="ncommaaccent" horiz-adv-x="670" d="M18 54L86 67V396L18 409V459L222 515H227L249 427H251Q261 439 277 453T315 481T363 504T420 513Q503 513 545 473T588 346V67L657 54V0H362V55L415 67V299Q415 410 321 409Q301 408
286 403T259 392V67L314 54V0H18V54ZM238 -249Q286 -232 305 -214T325 -172Q325 -149 305 -138T263 -127V-116Q271 -81 295 -68T348 -54Q390 -54 415 -77T440 -139Q440 -184 397 -223T252 -286L238 -249Z" />
<glyph unicode="&#x147;" glyph-name="Ncaron" horiz-adv-x="831" d="M596 0L194 477L199 80L338 52V0H28V55L115 74L116 579L27 610V664H279L646 227L643 581L504 612V664H808V609L726 587V77L729 0H596ZM570 875L468 736H361L259 875H329L416 816L502 875H570Z" />
<glyph unicode="&#x148;" glyph-name="ncaron" horiz-adv-x="670" d="M488 771L391 576H296L199 771H267L347 682L428 771H488ZM18 54L86 67V396L18 409V459L222 515H227L249 427H251Q261 439 277 453T315 481T363 504T420 513Q503 513 545 473T588 346V67L657
54V0H362V55L415 67V299Q415 410 321 409Q301 408 286 403T259 392V67L314 54V0H18V54Z" />
<glyph unicode="&#x149;" glyph-name="napostrophe" horiz-adv-x="670" d="M-13 576Q35 593 54 611T74 653Q74 676 54 687T12 698V709Q20 744 44 757T97 771Q139 771 164 748T189 686Q189 641 146 602T1 539L-13 576ZM18 54L86 67V396L18 409V459L222 515H227L249
427H251Q261 439 277 453T315 481T363 504T420 513Q503 513 545 473T588 346V67L657 54V0H362V55L415 67V299Q415 410 321 409Q301 408 286 403T259 392V67L314 54V0H18V54Z" />
<glyph unicode="&#x14a;" glyph-name="Eng" horiz-adv-x="830" d="M726 109Q726 37 708 -23T655 -128T569 -197T450 -224L434 -173Q472 -165 499 -151T544 -118T573 -75T590 -24L193 510L199 80L330 52V0H28V55L115 74L116 579L27 610V664H304L647 193L643 581L511
612V664H808V609L726 587V109Z" />
<glyph unicode="&#x14b;" glyph-name="eng" horiz-adv-x="650" d="M415 299Q415 410 321 409Q301 408 286 403T259 392V67L314 54V0H18V54L86 67V396L18 409V459L222 515H227L249 427H251Q261 439 277 453T315 481T363 504T420 513Q503 513 545 473T588 346V73Q588
-2 572 -54T531 -142Q505 -181 473 -202T413 -232Q380 -243 348 -243L325 -191Q343 -181 359 -164T388 -119T407 -48T415 55V299Z" />
<glyph unicode="&#x14c;" glyph-name="Omacron" horiz-adv-x="788" d="M249 840H539V760H249V840ZM405 47Q436 47 462 65T508 117T538 201T549 314Q549 375 538 430T504 527T451 593T380 618Q348 618 323 600T278 548T249 464T239 352Q239 284 252 228T287 131T340
69T405 47ZM395 685Q473 685 538 662T651 594T725 486T752 343Q752 260 723 193T643 79T528 5T390 -21Q313 -21 249 3T137 71T63 178T36 321Q36 405 65 472T143 587T258 659T395 685Z" />
<glyph unicode="&#x14d;" glyph-name="omacron" horiz-adv-x="602" d="M156 695H446V612H156V695ZM211 234Q217 190 227 154T253 94T286 57T327 47Q348 50 363 66T386 111T395 176T391 258Q385 302 375 338T349 398T316 435T275 445Q254 442 239 426T216 381T207
316T211 234ZM301 -18Q232 -18 181 2T94 58T42 140T24 239Q24 296 45 346T103 432T191 490T301 511Q363 511 414 493T501 440T558 360T578 256Q578 198 557 148T500 61T412 3T301 -18Z" />
<glyph unicode="&#x14e;" glyph-name="Obreve" horiz-adv-x="788" d="M390 724Q351 724 324 737T278 772T252 821T242 878H296Q307 852 329 834T396 816Q442 816 464 835T495 878H547Q546 849 537 822T509 773T461 738T390 724ZM405 47Q436 47 462 65T508 117T538
201T549 314Q549 375 538 430T504 527T451 593T380 618Q348 618 323 600T278 548T249 464T239 352Q239 284 252 228T287 131T340 69T405 47ZM395 685Q473 685 538 662T651 594T725 486T752 343Q752 260 723 193T643 79T528 5T390 -21Q313 -21 249 3T137 71T63 178T36
321Q36 405 65 472T143 587T258 659T395 685Z" />
<glyph unicode="&#x14f;" glyph-name="obreve" horiz-adv-x="602" d="M296 566Q257 566 232 579T190 616T168 668T161 729H215Q223 692 243 673T302 653Q340 653 360 672T389 729H441Q441 696 433 667T408 615T363 579T296 566ZM211 234Q217 190 227 154T253 94T286
57T327 47Q348 50 363 66T386 111T395 176T391 258Q385 302 375 338T349 398T316 435T275 445Q254 442 239 426T216 381T207 316T211 234ZM301 -18Q232 -18 181 2T94 58T42 140T24 239Q24 296 45 346T103 432T191 490T301 511Q363 511 414 493T501 440T558 360T578
256Q578 198 557 148T500 61T412 3T301 -18Z" />
<glyph unicode="&#x150;" glyph-name="Ohungarumlaut" horiz-adv-x="788" d="M448 875V856L337 736H269L326 875H448ZM607 875V856L496 736H428L485 875H607ZM405 47Q436 47 462 65T508 117T538 201T549 314Q549 375 538 430T504 527T451 593T380 618Q348 618
323 600T278 548T249 464T239 352Q239 284 252 228T287 131T340 69T405 47ZM395 685Q473 685 538 662T651 594T725 486T752 343Q752 260 723 193T643 79T528 5T390 -21Q313 -21 249 3T137 71T63 178T36 321Q36 405 65 472T143 587T258 659T395 685Z" />
<glyph unicode="&#x151;" glyph-name="ohungarumlaut" horiz-adv-x="602" d="M347 771V754L237 576H183L233 771H347ZM516 771V754L406 576H352L402 771H516ZM211 234Q217 190 227 154T253 94T286 57T327 47Q348 50 363 66T386 111T395 176T391 258Q385 302 375
338T349 398T316 435T275 445Q254 442 239 426T216 381T207 316T211 234ZM301 -18Q232 -18 181 2T94 58T42 140T24 239Q24 296 45 346T103 432T191 490T301 511Q363 511 414 493T501 440T558 360T578 256Q578 198 557 148T500 61T412 3T301 -18Z" />
<glyph unicode="&#x152;" glyph-name="OE" horiz-adv-x="1112" d="M790 0Q715 0 656 -1T548 -5T463 -8T396 -10Q319 -10 254 10T140 71T65 174T37 321Q37 401 68 466T150 577T267 649T402 674Q436 674 470 673T550 669T656 666T804 664H943L1043 671V474H991L939
603H715V368H832L858 453H906V228H856L832 307H715V68H937L1026 216H1078L1043 0H790ZM534 590Q510 601 478 607T421 613Q326 613 276 546T225 347Q225 284 237 230T273 137T336 76T428 53Q476 53 505 84T534 185V590Z" />
<glyph unicode="&#x153;" glyph-name="oe" horiz-adv-x="928" d="M650 -15Q589 -15 548 7T482 66Q450 27 405 5T301 -18Q232 -18 181 2T94 58T42 140T24 239Q24 296 45 346T103 432T191 490T301 511Q367 511 416 487T496 419Q531 466 579 489T676 513Q733 513
773 493T840 438T878 357T893 259H560Q566 218 582 189T622 140T675 113T736 104Q765 104 790 111T833 129Q854 140 871 154L896 124Q879 102 859 78T809 33T742 -1T650 -15ZM327 47Q348 50 363 66T386 111T395 176T391 258Q385 302 375 338T349 398T316 435T275
445Q254 442 239 426T216 381T207 316T211 234Q217 190 227 154T253 94T286 57T327 47ZM646 448Q612 448 586 417T556 322H725Q725 346 722 368T709 409T685 437T646 448Z" />
<glyph unicode="&#x154;" glyph-name="Racute" horiz-adv-x="762" d="M28 55L115 68V596L33 609V664L344 666Q410 667 467 657T566 624T633 566T657 482Q657 422 619 382T519 316V313L690 64L767 53V0H536L419 173Q399 201 388 220T368 250Q359 263 355 271L302
269V68L369 55V0H28V55ZM302 319L345 320Q406 331 440 370T475 459Q475 489 465 516T434 565T381 598T302 611V319ZM536 875V853L408 736H324L392 875H536Z" />
<glyph unicode="&#x155;" glyph-name="racute" horiz-adv-x="462" d="M18 54L86 67V396L18 409V459L213 513H219L252 413H254L258 421Q267 437 279 453T306 483T339 505T378 513Q418 513 441 489T461 426Q459 403 450 386T430 357Q418 343 403 332L278 393L259
386V67L354 54V0H18V54ZM419 771V753L303 576H239L286 771H419Z" />
<glyph unicode="&#x156;" glyph-name="Rcommaaccent" horiz-adv-x="762" d="M28 55L115 68V596L33 609V664L344 666Q410 667 467 657T566 624T633 566T657 482Q657 422 619 382T519 316V313L690 64L767 53V0H536L419 173Q399 201 388 220T368 250Q359 263 355
271L302 269V68L369 55V0H28V55ZM302 319L345 320Q406 331 440 370T475 459Q475 489 465 516T434 565T381 598T302 611V319ZM326 -249Q374 -232 393 -214T413 -172Q413 -149 393 -138T351 -127V-116Q359 -81 383 -68T436 -54Q478 -54 503 -77T528 -139Q528 -184
485 -223T340 -286L326 -249Z" />
<glyph unicode="&#x157;" glyph-name="rcommaaccent" horiz-adv-x="462" d="M18 54L86 67V396L18 409V459L213 513H219L252 413H254L258 421Q267 437 279 453T306 483T339 505T378 513Q418 513 441 489T461 426Q459 403 450 386T430 357Q418 343 403 332L278 393L259
386V67L354 54V0H18V54ZM319 7Q367 24 386 42T406 84Q406 107 386 118T344 129V140Q352 175 376 188T429 202Q471 202 496 179T521 117Q521 72 478 33T333 -30L319 7Z" />
<glyph unicode="&#x158;" glyph-name="Rcaron" horiz-adv-x="762" d="M526 875L424 736H317L215 875H285L372 816L458 875H526ZM28 55L115 68V596L33 609V664L344 666Q410 667 467 657T566 624T633 566T657 482Q657 422 619 382T519 316V313L690 64L767 53V0H536L419
173Q399 201 388 220T368 250Q359 263 355 271L302 269V68L369 55V0H28V55ZM302 319L345 320Q406 331 440 370T475 459Q475 489 465 516T434 565T381 598T302 611V319Z" />
<glyph unicode="&#x159;" glyph-name="rcaron" horiz-adv-x="462" d="M417 771L320 576H225L128 771H196L276 682L357 771H417ZM18 54L86 67V396L18 409V459L213 513H219L252 413H254L258 421Q267 437 279 453T306 483T339 505T378 513Q418 513 441 489T461 426Q459
403 450 386T430 357Q418 343 403 332L278 393L259 386V67L354 54V0H18V54Z" />
<glyph unicode="&#x15a;" glyph-name="Sacute" horiz-adv-x="593" d="M32 245H84L165 85Q188 68 214 59T279 49Q323 49 351 72T380 140Q380 175 358 199T292 240L212 272Q132 303 93 348T54 468Q54 506 71 545T123 615T210 666T331 686Q384 686 428 674T523 639L529
449H476L414 588Q411 591 404 596T387 606T361 616T327 620Q279 620 252 595T224 530Q224 495 245 471T319 426L403 392Q449 373 479 353T527 311T552 263T559 209Q559 156 534 114T469 41T378 -5T278 -21Q200 -21 147 -4T48 43L32 245ZM490 875V853L362 736H278L346
875H490Z" />
<glyph unicode="&#x15b;" glyph-name="sacute" horiz-adv-x="499" d="M394 771V753L278 576H214L261 771H394ZM237 -19Q208 -19 185 -17T141 -10T97 2T46 21L28 191H78L137 83Q155 63 176 52T226 41Q258 41 278 57T298 98Q298 123 279 141T219 178L154 207Q95
233 72 267T48 349Q48 383 64 413T108 465T176 500T263 513Q314 513 353 503T434 476L438 325H390L348 416Q337 429 319 440T271 451Q242 451 224 437T206 396Q206 377 219 362T274 329L337 302Q373 287 397 272T436 239T457 202T463 155Q463 119 446 88T399 32T328
-5T237 -19Z" />
<glyph unicode="&#x15c;" glyph-name="Scircumflex" horiz-adv-x="593" d="M172 736L274 875H381L487 736H411L326 794L242 736H172ZM32 245H84L165 85Q188 68 214 59T279 49Q323 49 351 72T380 140Q380 175 358 199T292 240L212 272Q132 303 93 348T54 468Q54
506 71 545T123 615T210 666T331 686Q384 686 428 674T523 639L529 449H476L414 588Q411 591 404 596T387 606T361 616T327 620Q279 620 252 595T224 530Q224 495 245 471T319 426L403 392Q449 373 479 353T527 311T552 263T559 209Q559 156 534 114T469 41T378
-5T278 -21Q200 -21 147 -4T48 43L32 245Z" />
<glyph unicode="&#x15d;" glyph-name="scircumflex" horiz-adv-x="499" d="M110 576L207 771H302L399 576H331L250 664L170 576H110ZM237 -19Q208 -19 185 -17T141 -10T97 2T46 21L28 191H78L137 83Q155 63 176 52T226 41Q258 41 278 57T298 98Q298 123 279 141T219
178L154 207Q95 233 72 267T48 349Q48 383 64 413T108 465T176 500T263 513Q314 513 353 503T434 476L438 325H390L348 416Q337 429 319 440T271 451Q242 451 224 437T206 396Q206 377 219 362T274 329L337 302Q373 287 397 272T436 239T457 202T463 155Q463 119
446 88T399 32T328 -5T237 -19Z" />
<glyph unicode="&#x15e;" glyph-name="Scedilla" horiz-adv-x="593" d="M150 -239Q165 -234 181 -227T210 -211T231 -189T239 -160Q239 -137 227 -124T204 -102L257 -21Q188 -19 139 -2T48 43L32 245H84L165 85Q188 68 214 59T279 49Q323 49 351 72T380 140Q380
175 358 199T292 240L212 272Q132 303 93 348T54 468Q54 506 71 545T123 615T210 666T331 686Q384 686 428 674T523 639L529 449H476L414 588Q411 591 404 596T387 606T361 616T327 620Q279 620 252 595T224 530Q224 495 245 471T319 426L403 392Q449 373 479 353T527
311T552 263T559 209Q559 160 538 121T483 52T404 4T313 -19L292 -61Q320 -69 342 -90T364 -143Q364 -176 346 -199T298 -239T233 -264T163 -280L150 -239Z" />
<glyph unicode="&#x15f;" glyph-name="scedilla" horiz-adv-x="499" d="M107 -239Q122 -234 138 -227T167 -211T188 -189T196 -160Q196 -137 184 -124T161 -102L215 -19Q191 -18 171 -16T132 -8T92 4T46 21L28 191H78L137 83Q155 63 176 52T226 41Q258 41 278
57T298 98Q298 123 279 141T219 178L154 207Q95 233 72 267T48 349Q48 383 64 413T108 465T176 500T263 513Q314 513 353 503T434 476L438 325H390L348 416Q337 429 319 440T271 451Q242 451 224 437T206 396Q206 377 219 362T274 329L337 302Q373 287 397 272T436
239T457 202T463 155Q463 122 449 93T410 41T349 3T271 -17L249 -61Q277 -69 299 -90T321 -143Q321 -176 303 -199T255 -239T190 -264T120 -280L107 -239Z" />
<glyph unicode="&#x160;" glyph-name="Scaron" horiz-adv-x="593" d="M32 245H84L165 85Q188 68 214 59T279 49Q323 49 351 72T380 140Q380 175 358 199T292 240L212 272Q132 303 93 348T54 468Q54 506 71 545T123 615T210 666T331 686Q384 686 428 674T523 639L529
449H476L414 588Q411 591 404 596T387 606T361 616T327 620Q279 620 252 595T224 530Q224 495 245 471T319 426L403 392Q449 373 479 353T527 311T552 263T559 209Q559 156 534 114T469 41T378 -5T278 -21Q200 -21 147 -4T48 43L32 245ZM480 875L378 736H271L169
875H239L326 816L412 875H480Z" />
<glyph unicode="&#x161;" glyph-name="scaron" horiz-adv-x="499" d="M237 -19Q208 -19 185 -17T141 -10T97 2T46 21L28 191H78L137 83Q155 63 176 52T226 41Q258 41 278 57T298 98Q298 123 279 141T219 178L154 207Q95 233 72 267T48 349Q48 383 64 413T108 465T176
500T263 513Q314 513 353 503T434 476L438 325H390L348 416Q337 429 319 440T271 451Q242 451 224 437T206 396Q206 377 219 362T274 329L337 302Q373 287 397 272T436 239T457 202T463 155Q463 119 446 88T399 32T328 -5T237 -19ZM392 771L295 576H200L103 771H171L251
682L332 771H392Z" />
<glyph unicode="&#x162;" glyph-name="Tcommaaccent" horiz-adv-x="730" d="M594 664L695 671L700 464H648L588 603H458V69L562 55V0H168V55L272 68V603H142L82 464H30L35 671L134 664H594ZM256 -249Q304 -232 323 -214T343 -172Q343 -149 323 -138T281 -127V-116Q289
-81 313 -68T366 -54Q408 -54 433 -77T458 -139Q458 -184 415 -223T270 -286L256 -249Z" />
<glyph unicode="&#x163;" glyph-name="tcommaaccent" horiz-adv-x="377" d="M192 -15Q121 -15 93 19T66 116L72 430H2V483L72 507L190 648H239V494H361V424H242V155Q242 131 249 117T267 96T292 86T320 84Q329 84 337 84T351 85Q358 85 363 86L375 32Q350 19 320
8Q294 -1 261 -8T192 -15ZM335 7Q383 24 402 42T422 84Q422 107 402 118T360 129V140Q368 175 392 188T445 202Q487 202 512 179T537 117Q537 72 494 33T349 -30L335 7Z" />
<glyph unicode="&#x164;" glyph-name="Tcaron" horiz-adv-x="730" d="M594 664L695 671L700 464H648L588 603H458V69L562 55V0H168V55L272 68V603H142L82 464H30L35 671L134 664H594ZM518 875L416 736H309L207 875H277L364 816L450 875H518Z" />
<glyph unicode="&#x165;" glyph-name="tcaron" horiz-adv-x="377" d="M192 -15Q121 -15 93 19T66 116L72 430H2V483L72 507L190 648H239V494H361V424H242V155Q242 131 249 117T267 96T292 86T320 84Q329 84 337 84T351 85Q358 85 363 86L375 32Q350 19 320 8Q294
-1 261 -8T192 -15ZM314 568L338 747H450V721L355 568H314Z" />
<glyph unicode="&#x166;" glyph-name="Tbar" horiz-adv-x="730" d="M139 387H272V603H142L82 464H30L35 671L134 664H594L695 671L700 464H648L588 603H458V387H589V326H458V69L562 55V0H168V55L272 68V326H139V387Z" />
<glyph unicode="&#x167;" glyph-name="tbar" horiz-adv-x="377" d="M2 354H70L72 430H2V483L72 507L190 648H239V494H361V424H242V354H361V287H242V155Q242 131 249 117T267 96T292 86T320 84Q329 84 337 84T351 85Q358 85 363 86L375 32Q350 19 320 8Q294 -1
261 -8T192 -15Q121 -15 93 19T66 116L69 287H2V354Z" />
<glyph unicode="&#x168;" glyph-name="Utilde" horiz-adv-x="782" d="M398 -21Q244 -21 171 47T97 268V595L15 609V664H363V609L284 595V254Q284 167 322 119T437 70Q518 70 559 121T600 275L597 583L471 612V664H767V609L686 588V293Q686 224 670 167T620 68T531
3T398 -21ZM392 762Q352 773 330 776T295 775T277 760T262 733L224 748L227 761Q238 808 256 833T297 867T349 873T411 860L438 853Q481 841 505 838T542 838T563 854T579 883L619 872L615 855Q604 807 586 782T542 747T486 740T419 755L392 762Z" />
<glyph unicode="&#x169;" glyph-name="utilde" horiz-adv-x="666" d="M417 75Q408 62 394 47T358 18T310 -5T248 -15Q221 -15 192 -8T138 17T98 65T82 142V418L14 431V481L255 508V193Q255 148 272 118T333 88Q361 88 379 96T407 113V417L333 430V481L580 508V87L649
73V20L464 -17L417 75ZM307 605Q275 614 254 620T219 625T195 612T176 578L138 598L143 611Q161 656 179 681T219 716T266 725T324 713L351 705Q385 695 408 689T447 684T473 697T494 735L532 715L527 700Q508 652 489 626T448 590T398 583T334 597L307 605Z" />
<glyph unicode="&#x16a;" glyph-name="Umacron" horiz-adv-x="782" d="M398 -21Q244 -21 171 47T97 268V595L15 609V664H363V609L284 595V254Q284 167 322 119T437 70Q518 70 559 121T600 275L597 583L471 612V664H767V609L686 588V293Q686 224 670 167T620 68T531
3T398 -21ZM276 840H566V760H276V840Z" />
<glyph unicode="&#x16b;" glyph-name="umacron" horiz-adv-x="666" d="M190 695H480V612H190V695ZM417 75Q408 62 394 47T358 18T310 -5T248 -15Q221 -15 192 -8T138 17T98 65T82 142V418L14 431V481L255 508V193Q255 148 272 118T333 88Q361 88 379 96T407 113V417L333
430V481L580 508V87L649 73V20L464 -17L417 75Z" />
<glyph unicode="&#x16c;" glyph-name="Ubreve" horiz-adv-x="782" d="M417 724Q378 724 351 737T305 772T279 821T269 878H323Q334 852 356 834T423 816Q469 816 491 835T522 878H574Q573 849 564 822T536 773T488 738T417 724ZM398 -21Q244 -21 171 47T97 268V595L15
609V664H363V609L284 595V254Q284 167 322 119T437 70Q518 70 559 121T600 275L597 583L471 612V664H767V609L686 588V293Q686 224 670 167T620 68T531 3T398 -21Z" />
<glyph unicode="&#x16d;" glyph-name="ubreve" horiz-adv-x="666" d="M330 566Q291 566 266 579T224 616T202 668T195 729H249Q257 692 277 673T336 653Q374 653 394 672T423 729H475Q475 696 467 667T442 615T397 579T330 566ZM417 75Q408 62 394 47T358 18T310
-5T248 -15Q221 -15 192 -8T138 17T98 65T82 142V418L14 431V481L255 508V193Q255 148 272 118T333 88Q361 88 379 96T407 113V417L333 430V481L580 508V87L649 73V20L464 -17L417 75Z" />
<glyph unicode="&#x16e;" glyph-name="Uring" horiz-adv-x="782" d="M300 827Q300 852 309 873T335 911T374 936T421 945Q446 945 468 936T507 912T532 874T542 827Q542 802 533 781T507 743T468 718T421 709Q395 709 373 718T335 742T310 779T300 827ZM359 827Q359
798 377 781T421 763Q447 763 465 780T483 827Q483 856 465 873T421 891Q395 891 377 874T359 827ZM398 -21Q244 -21 171 47T97 268V595L15 609V664H363V609L284 595V254Q284 167 322 119T437 70Q518 70 559 121T600 275L597 583L471 612V664H767V609L686 588V293Q686
224 670 167T620 68T531 3T398 -21Z" />
<glyph unicode="&#x16f;" glyph-name="uring" horiz-adv-x="666" d="M214 674Q214 699 223 720T249 758T288 783T335 792Q360 792 382 783T421 759T446 721T456 674Q456 649 447 628T421 590T382 565T335 556Q309 556 287 565T249 589T224 626T214 674ZM273 674Q273
645 291 628T335 610Q361 610 379 627T397 674Q397 703 379 720T335 738Q309 738 291 721T273 674ZM417 75Q408 62 394 47T358 18T310 -5T248 -15Q221 -15 192 -8T138 17T98 65T82 142V418L14 431V481L255 508V193Q255 148 272 118T333 88Q361 88 379 96T407 113V417L333
430V481L580 508V87L649 73V20L464 -17L417 75Z" />
<glyph unicode="&#x170;" glyph-name="Uhungarumlaut" horiz-adv-x="782" d="M398 -21Q244 -21 171 47T97 268V595L15 609V664H363V609L284 595V254Q284 167 322 119T437 70Q518 70 559 121T600 275L597 583L471 612V664H767V609L686 588V293Q686 224 670 167T620
68T531 3T398 -21ZM475 875V856L364 736H296L353 875H475ZM634 875V856L523 736H455L512 875H634Z" />
<glyph unicode="&#x171;" glyph-name="uhungarumlaut" horiz-adv-x="666" d="M381 771V754L271 576H217L267 771H381ZM550 771V754L440 576H386L436 771H550ZM417 75Q408 62 394 47T358 18T310 -5T248 -15Q221 -15 192 -8T138 17T98 65T82 142V418L14 431V481L255
508V193Q255 148 272 118T333 88Q361 88 379 96T407 113V417L333 430V481L580 508V87L649 73V20L464 -17L417 75Z" />
<glyph unicode="&#x172;" glyph-name="Uogonek" horiz-adv-x="782" d="M686 293Q686 231 673 178T632 84T560 17T454 -17Q423 -51 413 -73T402 -116Q402 -141 418 -154T454 -168Q479 -168 498 -156T543 -121L568 -144Q555 -165 540 -187T506 -227T463 -257T405
-269Q351 -269 320 -240T289 -166Q289 -130 310 -97T382 -21Q236 -17 167 51T97 268V595L15 609V664H363V609L284 595V254Q284 167 322 119T437 70Q518 70 559 121T600 275L597 583L471 612V664H767V609L686 588V293Z" />
<glyph unicode="&#x173;" glyph-name="uogonek" horiz-adv-x="666" d="M519 -6Q481 -45 469 -69T456 -116Q456 -141 472 -154T508 -168Q533 -168 552 -156T597 -121L622 -144Q609 -165 594 -187T560 -227T517 -257T459 -269Q405 -269 374 -240T343 -166Q343 -127
369 -90T457 -4L417 75Q408 62 394 47T358 18T310 -5T248 -15Q221 -15 192 -8T138 17T98 65T82 142V418L14 431V481L255 508V193Q255 148 272 118T333 88Q361 88 379 96T407 113V417L333 430V481L580 508V87L649 73V20L519 -6Z" />
<glyph unicode="&#x174;" glyph-name="Wcircumflex" horiz-adv-x="1132" d="M568 404L431 -11H301L84 595L6 608V664H359V608L283 595L424 174L532 506L500 596L428 608V664H774V608L699 594L840 175L963 582L879 608V664H1126V608L1049 588L847 -11H717L568 404ZM448
736L550 875H657L763 736H687L602 794L518 736H448Z" />
<glyph unicode="&#x175;" glyph-name="wcircumflex" horiz-adv-x="890" d="M351 576L448 771H543L640 576H572L491 664L411 576H351ZM644 170Q646 165 646 162T648 154Q649 150 650 146H652Q653 149 654 153Q656 161 659 170L735 412L663 436V494H886V436L831
427L680 -8H551L459 240Q457 245 456 249T452 259Q450 264 449 269H447Q445 264 443 259Q441 254 440 250T436 240L334 -8H195L54 427L4 437V494H314V436L237 427L302 170Q303 162 307 149Q309 143 310 136H312Q313 143 316 149Q318 154 320 159T324 170L448 494H537L644
170Z" />
<glyph unicode="&#x176;" glyph-name="Ycircumflex" horiz-adv-x="707" d="M252 736L354 875H461L567 736H491L406 794L322 736H252ZM447 279V68L539 55V0H168V55L260 68V243L70 599L6 608V664H370V610L285 597L406 330L539 592L452 610V664H701V610L623 592L447 279Z" />
<glyph unicode="&#x177;" glyph-name="ycircumflex" horiz-adv-x="570" d="M195 576L292 771H387L484 576H416L335 664L255 576H195ZM369 436V494H564V436L522 427L315 -96Q296 -145 280 -177T245 -228T207 -255T158 -263Q138 -263 120 -257T88 -238T66 -210T58
-173Q58 -134 81 -113T139 -92Q168 -92 186 -108T218 -150H223L258 -69L48 427L6 437V494H301V436L236 427L335 138H340L438 420L369 436Z" />
<glyph unicode="&#x178;" glyph-name="Ydieresis" horiz-adv-x="707" d="M282 718Q250 718 227 741T204 796Q204 828 227 851T282 875Q298 875 312 869T336 852T353 827T360 796Q360 780 354 766T337 741T312 724T282 718ZM531 718Q515 718 501 724T477 740T460
765T453 796Q453 812 459 826T476 851T501 868T531 875Q563 875 586 852T610 796Q610 764 587 741T531 718ZM447 279V68L539 55V0H168V55L260 68V243L70 599L6 608V664H370V610L285 597L406 330L539 592L452 610V664H701V610L623 592L447 279Z" />
<glyph unicode="&#x179;" glyph-name="Zacute" horiz-adv-x="644" d="M505 875V853L377 736H293L361 875H505ZM22 65L383 597H156L89 447H39L52 671L151 664H624V647L233 68H472L568 241H617L580 -7L473 0H22V65Z" />
<glyph unicode="&#x17a;" glyph-name="zacute" horiz-adv-x="554" d="M30 0V54L297 432H158L89 310H44L56 502L164 494H518V468L227 64H390L464 191H512L489 -4L390 0H30ZM427 771V753L311 576H247L294 771H427Z" />
<glyph unicode="&#x17b;" glyph-name="Zdotaccent" horiz-adv-x="644" d="M342 735Q297 735 271 762T245 828Q245 866 271 892T342 919Q387 919 413 893T439 828Q439 790 412 763T342 735ZM22 65L383 597H156L89 447H39L52 671L151 664H624V647L233 68H472L568
241H617L580 -7L473 0H22V65Z" />
<glyph unicode="&#x17c;" glyph-name="zdotaccent" horiz-adv-x="554" d="M284 569Q239 569 213 596T187 662Q187 700 213 726T284 753Q329 753 355 727T381 662Q381 624 354 597T284 569ZM30 0V54L297 432H158L89 310H44L56 502L164 494H518V468L227 64H390L464
191H512L489 -4L390 0H30Z" />
<glyph unicode="&#x17d;" glyph-name="Zcaron" horiz-adv-x="644" d="M22 65L383 597H156L89 447H39L52 671L151 664H624V647L233 68H472L568 241H617L580 -7L473 0H22V65ZM495 875L393 736H286L184 875H254L341 816L427 875H495Z" />
<glyph unicode="&#x17e;" glyph-name="zcaron" horiz-adv-x="554" d="M30 0V54L297 432H158L89 310H44L56 502L164 494H518V468L227 64H390L464 191H512L489 -4L390 0H30ZM425 771L328 576H233L136 771H204L284 682L365 771H425Z" />
<glyph unicode="&#x192;" glyph-name="florin" horiz-adv-x="557" d="M70 326H177Q190 375 213 414T266 485T327 540T389 578T444 600T485 608Q511 608 528 602T554 585T568 561T572 533Q572 498 546 470T485 431Q476 476 463 503T427 531Q395 531 374 485T341
326H493L482 261H335L325 167Q316 82 294 18T242 -94T177 -173T109 -224T46 -252T-4 -260Q-49 -260 -74 -235T-100 -177Q-100 -142 -73 -120T-5 -89Q9 -136 21 -163T55 -191Q74 -191 92 -162T121 -61L166 261H59L70 326Z" />
<glyph unicode="&#x1fa;" glyph-name="Aringacute" horiz-adv-x="789" d="M6 52L74 73L306 655L380 659L460 680L707 66L783 54V0H421V56L506 68L458 201H213L170 81L276 56V0H6V52ZM240 278H430L336 540H335L240 278ZM273 827Q273 852 282 873T308 911T347 936T394
945Q419 945 441 936T480 912T505 874T515 827Q515 802 506 781T480 743T441 718T394 709Q368 709 346 718T308 742T283 779T273 827ZM332 827Q332 798 350 781T394 763Q420 763 438 780T456 827Q456 856 438 873T394 891Q368 891 350 874T332 827ZM563 1117V1095L435
978H351L419 1117H563Z" />
<glyph unicode="&#x1fb;" glyph-name="aringacute" horiz-adv-x="580" d="M183 -13Q152 -13 125 -3T78 25T47 68T35 125Q35 157 47 180T80 219T130 247T195 267L322 296V328Q322 352 318 374T304 412T278 437T239 447Q228 447 213 444T191 438V331Q178 326 159
321T116 315Q88 315 71 329T53 373Q53 396 73 420T128 464T208 497T302 510Q356 510 393 499T452 464T485 407T495 327V108Q495 81 504 75T536 69H572V27Q549 16 524 7Q503 -1 478 -7T429 -13Q403 -13 386 -6T357 13T339 42T328 79H324Q312 63 300 47T271 17T233
-4T183 -13ZM270 85Q288 85 301 92T322 108V245L284 235Q235 221 219 203T202 158Q202 123 222 104T270 85ZM168 926Q168 951 177 972T203 1010T242 1035T289 1044Q314 1044 336 1035T375 1011T400 973T410 926Q410 901 401 880T375 842T336 817T289 808Q263 808
241 817T203 841T178 878T168 926ZM227 926Q227 897 245 880T289 862Q315 862 333 879T351 926Q351 955 333 972T289 990Q263 990 245 973T227 926ZM458 965V943L330 826H246L314 965H458Z" />
<glyph unicode="&#x1fc;" glyph-name="AEacute" horiz-adv-x="1067" d="M671 285V68H892L981 216H1033L998 0H402V55L488 68V286H285L180 82L285 56V0H6V52L74 73L369 588L256 609V664H898L998 671V474H946L894 603H671V346H787L813 431H861V206H811L787 285H671ZM465
603L317 346H488V603H465ZM778 875V853L650 736H566L634 875H778Z" />
<glyph unicode="&#x1fd;" glyph-name="aeacute" horiz-adv-x="828" d="M184 -13Q149 -13 121 -2T74 28T45 72T35 124Q35 156 46 179T79 219T129 247T195 267L322 295V328Q322 388 301 417T239 447Q221 447 210 444T191 438V331Q178 326 161 321T119 315Q91 315
72 328T53 372Q53 397 74 421T128 465T204 497T290 510Q354 510 389 492T444 442Q470 474 505 493T590 513Q642 513 679 494T741 443T776 374T790 297Q785 296 766 294T718 289T655 283T588 276T526 271T476 266V246Q492 177 536 141T646 104Q675 104 698 111T738
129Q756 140 771 154L796 124Q781 102 763 78T717 33T651 -1T560 -15Q520 -15 489 -7T432 16T389 50T359 92Q342 74 323 56T283 22T237 -3T184 -13ZM272 86Q298 86 315 98T342 126Q331 155 327 184T322 237V245L289 237Q248 226 225 209T202 158Q202 124 222 105T272
86ZM560 448Q529 448 504 413T476 315L630 331Q630 385 613 416T560 448ZM588 771V753L472 576H408L455 771H588Z" />
<glyph unicode="&#x1fe;" glyph-name="Oslashacute" horiz-adv-x="788" d="M125 86Q83 130 60 188T37 321Q37 403 66 470T144 585T259 659T395 685Q459 685 515 667T617 616L683 687H756L658 581Q702 536 726 476T751 343Q751 258 722 191T644 76T529 4T390 -21Q260
-21 165 51L88 -32H15L125 86ZM558 320Q558 394 541 456L264 158Q286 106 322 74T409 42Q446 42 474 61T520 117T548 205T558 320ZM384 619Q315 619 274 545T233 330Q233 270 245 216L520 512Q496 563 461 591T384 619ZM552 875V853L424 736H340L408 875H552Z"
/>
<glyph unicode="&#x1ff;" glyph-name="oslashacute" horiz-adv-x="602" d="M18 -42L100 52Q62 88 43 136T24 239Q24 296 45 346T103 432T191 490T301 511Q349 511 389 500T464 468L520 532H585L503 438Q538 404 558 358T578 256Q578 198 557 148T500 61T412 3T301
-18Q251 -18 211 -8T139 23L83 -42H18ZM199 272Q199 219 208 176L377 368Q362 405 339 425T286 446Q245 446 222 401T199 272ZM316 46Q343 46 359 63T385 105T398 160T401 215Q401 268 392 312L225 121Q241 86 264 66T316 46ZM444 771V753L328 576H264L311 771H444Z"
/>
<glyph unicode="&#x218;" glyph-name="Scommaaccent" horiz-adv-x="593" d="M32 245H84L165 85Q188 68 214 59T279 49Q323 49 351 72T380 140Q380 175 358 199T292 240L212 272Q132 303 93 348T54 468Q54 506 71 545T123 615T210 666T331 686Q384 686 428 674T523
639L529 449H476L414 588Q411 591 404 596T387 606T361 616T327 620Q279 620 252 595T224 530Q224 495 245 471T319 426L403 392Q449 373 479 353T527 311T552 263T559 209Q559 156 534 114T469 41T378 -5T278 -21Q200 -21 147 -4T48 43L32 245ZM184 7Q232 24 251
42T271 84Q271 107 251 118T209 129V140Q217 175 241 188T294 202Q336 202 361 179T386 117Q386 72 343 33T198 -30L184 7Z" />
<glyph unicode="&#x219;" glyph-name="scommaaccent" horiz-adv-x="499" d="M237 -19Q208 -19 185 -17T141 -10T97 2T46 21L28 191H78L137 83Q155 63 176 52T226 41Q258 41 278 57T298 98Q298 123 279 141T219 178L154 207Q95 233 72 267T48 349Q48 383 64 413T108
465T176 500T263 513Q314 513 353 503T434 476L438 325H390L348 416Q337 429 319 440T271 451Q242 451 224 437T206 396Q206 377 219 362T274 329L337 302Q373 287 397 272T436 239T457 202T463 155Q463 119 446 88T399 32T328 -5T237 -19ZM137 7Q185 24 204 42T224
84Q224 107 204 118T162 129V140Q170 175 194 188T247 202Q289 202 314 179T339 117Q339 72 296 33T151 -30L137 7Z" />
<glyph unicode="&#x21a;" glyph-name="uni021A" horiz-adv-x="730" d="M594 664L695 671L700 464H648L588 603H458V69L562 55V0H168V55L272 68V603H142L82 464H30L35 671L134 664H594ZM256 -249Q304 -232 323 -214T343 -172Q343 -149 323 -138T281 -127V-116Q289
-81 313 -68T366 -54Q408 -54 433 -77T458 -139Q458 -184 415 -223T270 -286L256 -249Z" />
<glyph unicode="&#x21b;" glyph-name="uni021B" horiz-adv-x="377" d="M192 -15Q121 -15 93 19T66 116L72 430H2V483L72 507L190 648H239V494H361V424H242V155Q242 131 249 117T267 96T292 86T320 84Q329 84 337 84T351 85Q358 85 363 86L375 32Q350 19 320 8Q294
-1 261 -8T192 -15ZM335 7Q383 24 402 42T422 84Q422 107 402 118T360 129V140Q368 175 392 188T445 202Q487 202 512 179T537 117Q537 72 494 33T349 -30L335 7Z" />
<glyph unicode="&#x237;" glyph-name="uni0237" horiz-adv-x="331" d="M-7 -191Q11 -181 27 -164T56 -119T75 -48T83 55V396L15 409V464L256 513V73Q256 -2 240 -54T199 -142Q173 -181 141 -202T81 -232Q48 -243 16 -243L-7 -191Z" />
<glyph unicode="&#x2c6;" glyph-name="circumflex" horiz-adv-x="400" d="M55 576L152 771H247L344 576H276L195 664L115 576H55Z" />
<glyph unicode="&#x2c7;" glyph-name="caron" horiz-adv-x="400" d="M344 771L247 576H152L55 771H123L203 682L284 771H344Z" />
<glyph unicode="&#x2d8;" glyph-name="breve" horiz-adv-x="400" d="M195 566Q156 566 131 579T89 616T67 668T60 729H114Q122 692 142 673T201 653Q239 653 259 672T288 729H340Q340 696 332 667T307 615T262 579T195 566Z" />
<glyph unicode="&#x2d9;" glyph-name="dotaccent" horiz-adv-x="400" d="M200 569Q155 569 129 596T103 662Q103 700 129 726T200 753Q245 753 271 727T297 662Q297 624 270 597T200 569Z" />
<glyph unicode="&#x2da;" glyph-name="ring" horiz-adv-x="400" d="M79 674Q79 699 88 720T114 758T153 783T200 792Q225 792 247 783T286 759T311 721T321 674Q321 649 312 628T286 590T247 565T200 556Q174 556 152 565T114 589T89 626T79 674ZM138 674Q138
645 156 628T200 610Q226 610 244 627T262 674Q262 703 244 720T200 738Q174 738 156 721T138 674Z" />
<glyph unicode="&#x2db;" glyph-name="ogonek" horiz-adv-x="400" d="M287 55Q252 22 230 -1T195 -43T177 -77T172 -106Q172 -131 188 -144T224 -158Q249 -158 268 -146T313 -111L338 -134Q325 -155 310 -177T276 -217T233 -247T175 -259Q121 -259 90 -230T59
-156Q59 -132 68 -110T99 -62T155 -9T240 55H287Z" />
<glyph unicode="&#x2dc;" glyph-name="tilde" horiz-adv-x="400" d="M172 605Q140 614 119 620T84 625T60 612T41 578L3 598L8 611Q26 656 44 681T84 716T131 725T189 713L216 705Q250 695 273 689T312 684T338 697T359 735L397 715L392 700Q373 652 354 626T313
590T263 583T199 597L172 605Z" />
<glyph unicode="&#x2dd;" glyph-name="hungarumlaut" horiz-adv-x="400" d="M200 771V754L90 576H36L86 771H200ZM369 771V754L259 576H205L255 771H369Z" />
</font>
</defs>
</svg>
